G75*
G70*
%OFA0B0*%
%FSLAX24Y24*%
%IPPOS*%
%LPD*%
%AMOC8*
5,1,8,0,0,1.08239X$1,22.5*
%
%ADD10C,0.0160*%
%ADD11C,0.0000*%
%ADD12C,0.0060*%
%ADD13OC8,0.0630*%
%ADD14C,0.0787*%
%ADD15OC8,0.0520*%
%ADD16C,0.0600*%
%ADD17R,0.0650X0.0650*%
%ADD18C,0.0650*%
%ADD19C,0.0740*%
%ADD20C,0.0515*%
%ADD21C,0.0520*%
%ADD22C,0.0700*%
%ADD23C,0.0560*%
%ADD24C,0.0500*%
%ADD25C,0.0240*%
%ADD26C,0.0200*%
%ADD27C,0.0360*%
D10*
X004331Y004583D02*
X004331Y007083D01*
X003081Y005833D02*
X005581Y005833D01*
X011331Y010333D02*
X011331Y013333D01*
X009331Y013333D01*
X009331Y023333D01*
X011331Y023333D01*
X011331Y026333D01*
X042331Y026333D01*
X042331Y023333D01*
X044331Y023333D01*
X044331Y013333D01*
X042331Y013333D01*
X042331Y010333D01*
X011331Y010333D01*
X019823Y012343D02*
X019831Y012333D01*
X021823Y012343D02*
X021831Y012333D01*
X023823Y012343D02*
X023831Y012333D01*
X025823Y012343D02*
X025831Y012333D01*
X027823Y012343D02*
X027831Y012333D01*
X032331Y016333D02*
X033331Y015333D01*
X034456Y015333D01*
X036831Y012958D01*
X036831Y012333D01*
X036823Y012343D01*
X037831Y011333D02*
X037831Y013833D01*
X034331Y017333D01*
X034331Y019208D01*
X031956Y021583D01*
X031456Y021583D01*
X031500Y020802D02*
X031831Y020833D01*
X032331Y020333D01*
X032331Y016333D01*
X035331Y017333D02*
X036331Y017333D01*
X037331Y017333D02*
X037331Y015333D01*
X038331Y015083D02*
X038331Y018333D01*
X038331Y018583D01*
X039206Y019458D01*
X039206Y020208D01*
X038331Y019833D02*
X038331Y022833D01*
X038581Y023083D01*
X040331Y023083D01*
X041331Y022083D01*
X041331Y018958D01*
X041948Y018342D01*
X042841Y018342D01*
X042841Y018343D01*
X043831Y019333D01*
X043831Y021833D01*
X043331Y022333D01*
X038331Y019833D02*
X037831Y019333D01*
X037331Y019333D01*
X036331Y020333D01*
X035331Y020333D02*
X037331Y018333D01*
X038331Y018333D01*
X042331Y016333D02*
X042841Y016342D01*
X042331Y016333D02*
X041331Y014333D01*
X039081Y014333D01*
X038331Y015083D01*
X034831Y012333D02*
X034823Y012343D01*
X034831Y012333D02*
X034831Y011333D01*
X037831Y011333D01*
X048581Y005833D02*
X051081Y005833D01*
X049831Y004583D02*
X049831Y007083D01*
X023831Y023833D02*
X023831Y024333D01*
X023823Y024343D01*
X023831Y023833D02*
X022831Y022833D01*
X021331Y022833D01*
X020581Y022083D01*
X020581Y020083D01*
X019831Y019333D01*
X019331Y020583D02*
X019331Y018083D01*
X018331Y016833D02*
X018331Y020833D01*
X019331Y021833D01*
X017831Y021333D02*
X017831Y019333D01*
X016831Y019333D02*
X016831Y021333D01*
X014831Y019833D02*
X014831Y019333D01*
X014831Y019833D02*
X014081Y020583D01*
X013331Y020583D01*
X012581Y021333D01*
X012331Y021333D01*
X012581Y020583D02*
X013831Y019333D01*
X012581Y020583D02*
X010831Y020583D01*
X010331Y021333D01*
X017206Y025708D02*
X027206Y025708D01*
X027823Y024343D02*
X027831Y024333D01*
X025831Y024333D02*
X025823Y024343D01*
X020081Y024083D02*
X019831Y024333D01*
X019823Y024343D01*
X018331Y016833D02*
X017831Y016333D01*
X004331Y030333D02*
X004331Y032833D01*
X003081Y031583D02*
X005581Y031583D01*
D11*
X012079Y024333D02*
X012081Y024385D01*
X012087Y024437D01*
X012097Y024488D01*
X012110Y024538D01*
X012128Y024588D01*
X012149Y024635D01*
X012173Y024681D01*
X012202Y024725D01*
X012233Y024767D01*
X012267Y024806D01*
X012304Y024843D01*
X012344Y024876D01*
X012387Y024907D01*
X012431Y024934D01*
X012477Y024958D01*
X012526Y024978D01*
X012575Y024994D01*
X012626Y025007D01*
X012677Y025016D01*
X012729Y025021D01*
X012781Y025022D01*
X012833Y025019D01*
X012885Y025012D01*
X012936Y025001D01*
X012986Y024987D01*
X013035Y024968D01*
X013082Y024946D01*
X013127Y024921D01*
X013171Y024892D01*
X013212Y024860D01*
X013251Y024825D01*
X013286Y024787D01*
X013319Y024746D01*
X013349Y024704D01*
X013375Y024659D01*
X013398Y024612D01*
X013417Y024563D01*
X013433Y024513D01*
X013445Y024463D01*
X013453Y024411D01*
X013457Y024359D01*
X013457Y024307D01*
X013453Y024255D01*
X013445Y024203D01*
X013433Y024153D01*
X013417Y024103D01*
X013398Y024054D01*
X013375Y024007D01*
X013349Y023962D01*
X013319Y023920D01*
X013286Y023879D01*
X013251Y023841D01*
X013212Y023806D01*
X013171Y023774D01*
X013127Y023745D01*
X013082Y023720D01*
X013035Y023698D01*
X012986Y023679D01*
X012936Y023665D01*
X012885Y023654D01*
X012833Y023647D01*
X012781Y023644D01*
X012729Y023645D01*
X012677Y023650D01*
X012626Y023659D01*
X012575Y023672D01*
X012526Y023688D01*
X012477Y023708D01*
X012431Y023732D01*
X012387Y023759D01*
X012344Y023790D01*
X012304Y023823D01*
X012267Y023860D01*
X012233Y023899D01*
X012202Y023941D01*
X012173Y023985D01*
X012149Y024031D01*
X012128Y024078D01*
X012110Y024128D01*
X012097Y024178D01*
X012087Y024229D01*
X012081Y024281D01*
X012079Y024333D01*
X025181Y015933D02*
X025183Y015983D01*
X025189Y016033D01*
X025199Y016083D01*
X025212Y016131D01*
X025229Y016179D01*
X025250Y016225D01*
X025274Y016269D01*
X025302Y016311D01*
X025333Y016351D01*
X025367Y016388D01*
X025404Y016423D01*
X025443Y016454D01*
X025484Y016483D01*
X025528Y016508D01*
X025574Y016530D01*
X025621Y016548D01*
X025669Y016562D01*
X025718Y016573D01*
X025768Y016580D01*
X025818Y016583D01*
X025869Y016582D01*
X025919Y016577D01*
X025969Y016568D01*
X026017Y016556D01*
X026065Y016539D01*
X026111Y016519D01*
X026156Y016496D01*
X026199Y016469D01*
X026239Y016439D01*
X026277Y016406D01*
X026312Y016370D01*
X026345Y016331D01*
X026374Y016290D01*
X026400Y016247D01*
X026423Y016202D01*
X026442Y016155D01*
X026457Y016107D01*
X026469Y016058D01*
X026477Y016008D01*
X026481Y015958D01*
X026481Y015908D01*
X026477Y015858D01*
X026469Y015808D01*
X026457Y015759D01*
X026442Y015711D01*
X026423Y015664D01*
X026400Y015619D01*
X026374Y015576D01*
X026345Y015535D01*
X026312Y015496D01*
X026277Y015460D01*
X026239Y015427D01*
X026199Y015397D01*
X026156Y015370D01*
X026111Y015347D01*
X026065Y015327D01*
X026017Y015310D01*
X025969Y015298D01*
X025919Y015289D01*
X025869Y015284D01*
X025818Y015283D01*
X025768Y015286D01*
X025718Y015293D01*
X025669Y015304D01*
X025621Y015318D01*
X025574Y015336D01*
X025528Y015358D01*
X025484Y015383D01*
X025443Y015412D01*
X025404Y015443D01*
X025367Y015478D01*
X025333Y015515D01*
X025302Y015555D01*
X025274Y015597D01*
X025250Y015641D01*
X025229Y015687D01*
X025212Y015735D01*
X025199Y015783D01*
X025189Y015833D01*
X025183Y015883D01*
X025181Y015933D01*
X012079Y012333D02*
X012081Y012385D01*
X012087Y012437D01*
X012097Y012488D01*
X012110Y012538D01*
X012128Y012588D01*
X012149Y012635D01*
X012173Y012681D01*
X012202Y012725D01*
X012233Y012767D01*
X012267Y012806D01*
X012304Y012843D01*
X012344Y012876D01*
X012387Y012907D01*
X012431Y012934D01*
X012477Y012958D01*
X012526Y012978D01*
X012575Y012994D01*
X012626Y013007D01*
X012677Y013016D01*
X012729Y013021D01*
X012781Y013022D01*
X012833Y013019D01*
X012885Y013012D01*
X012936Y013001D01*
X012986Y012987D01*
X013035Y012968D01*
X013082Y012946D01*
X013127Y012921D01*
X013171Y012892D01*
X013212Y012860D01*
X013251Y012825D01*
X013286Y012787D01*
X013319Y012746D01*
X013349Y012704D01*
X013375Y012659D01*
X013398Y012612D01*
X013417Y012563D01*
X013433Y012513D01*
X013445Y012463D01*
X013453Y012411D01*
X013457Y012359D01*
X013457Y012307D01*
X013453Y012255D01*
X013445Y012203D01*
X013433Y012153D01*
X013417Y012103D01*
X013398Y012054D01*
X013375Y012007D01*
X013349Y011962D01*
X013319Y011920D01*
X013286Y011879D01*
X013251Y011841D01*
X013212Y011806D01*
X013171Y011774D01*
X013127Y011745D01*
X013082Y011720D01*
X013035Y011698D01*
X012986Y011679D01*
X012936Y011665D01*
X012885Y011654D01*
X012833Y011647D01*
X012781Y011644D01*
X012729Y011645D01*
X012677Y011650D01*
X012626Y011659D01*
X012575Y011672D01*
X012526Y011688D01*
X012477Y011708D01*
X012431Y011732D01*
X012387Y011759D01*
X012344Y011790D01*
X012304Y011823D01*
X012267Y011860D01*
X012233Y011899D01*
X012202Y011941D01*
X012173Y011985D01*
X012149Y012031D01*
X012128Y012078D01*
X012110Y012128D01*
X012097Y012178D01*
X012087Y012229D01*
X012081Y012281D01*
X012079Y012333D01*
X040204Y012333D02*
X040206Y012385D01*
X040212Y012437D01*
X040222Y012488D01*
X040235Y012538D01*
X040253Y012588D01*
X040274Y012635D01*
X040298Y012681D01*
X040327Y012725D01*
X040358Y012767D01*
X040392Y012806D01*
X040429Y012843D01*
X040469Y012876D01*
X040512Y012907D01*
X040556Y012934D01*
X040602Y012958D01*
X040651Y012978D01*
X040700Y012994D01*
X040751Y013007D01*
X040802Y013016D01*
X040854Y013021D01*
X040906Y013022D01*
X040958Y013019D01*
X041010Y013012D01*
X041061Y013001D01*
X041111Y012987D01*
X041160Y012968D01*
X041207Y012946D01*
X041252Y012921D01*
X041296Y012892D01*
X041337Y012860D01*
X041376Y012825D01*
X041411Y012787D01*
X041444Y012746D01*
X041474Y012704D01*
X041500Y012659D01*
X041523Y012612D01*
X041542Y012563D01*
X041558Y012513D01*
X041570Y012463D01*
X041578Y012411D01*
X041582Y012359D01*
X041582Y012307D01*
X041578Y012255D01*
X041570Y012203D01*
X041558Y012153D01*
X041542Y012103D01*
X041523Y012054D01*
X041500Y012007D01*
X041474Y011962D01*
X041444Y011920D01*
X041411Y011879D01*
X041376Y011841D01*
X041337Y011806D01*
X041296Y011774D01*
X041252Y011745D01*
X041207Y011720D01*
X041160Y011698D01*
X041111Y011679D01*
X041061Y011665D01*
X041010Y011654D01*
X040958Y011647D01*
X040906Y011644D01*
X040854Y011645D01*
X040802Y011650D01*
X040751Y011659D01*
X040700Y011672D01*
X040651Y011688D01*
X040602Y011708D01*
X040556Y011732D01*
X040512Y011759D01*
X040469Y011790D01*
X040429Y011823D01*
X040392Y011860D01*
X040358Y011899D01*
X040327Y011941D01*
X040298Y011985D01*
X040274Y012031D01*
X040253Y012078D01*
X040235Y012128D01*
X040222Y012178D01*
X040212Y012229D01*
X040206Y012281D01*
X040204Y012333D01*
X040204Y024333D02*
X040206Y024385D01*
X040212Y024437D01*
X040222Y024488D01*
X040235Y024538D01*
X040253Y024588D01*
X040274Y024635D01*
X040298Y024681D01*
X040327Y024725D01*
X040358Y024767D01*
X040392Y024806D01*
X040429Y024843D01*
X040469Y024876D01*
X040512Y024907D01*
X040556Y024934D01*
X040602Y024958D01*
X040651Y024978D01*
X040700Y024994D01*
X040751Y025007D01*
X040802Y025016D01*
X040854Y025021D01*
X040906Y025022D01*
X040958Y025019D01*
X041010Y025012D01*
X041061Y025001D01*
X041111Y024987D01*
X041160Y024968D01*
X041207Y024946D01*
X041252Y024921D01*
X041296Y024892D01*
X041337Y024860D01*
X041376Y024825D01*
X041411Y024787D01*
X041444Y024746D01*
X041474Y024704D01*
X041500Y024659D01*
X041523Y024612D01*
X041542Y024563D01*
X041558Y024513D01*
X041570Y024463D01*
X041578Y024411D01*
X041582Y024359D01*
X041582Y024307D01*
X041578Y024255D01*
X041570Y024203D01*
X041558Y024153D01*
X041542Y024103D01*
X041523Y024054D01*
X041500Y024007D01*
X041474Y023962D01*
X041444Y023920D01*
X041411Y023879D01*
X041376Y023841D01*
X041337Y023806D01*
X041296Y023774D01*
X041252Y023745D01*
X041207Y023720D01*
X041160Y023698D01*
X041111Y023679D01*
X041061Y023665D01*
X041010Y023654D01*
X040958Y023647D01*
X040906Y023644D01*
X040854Y023645D01*
X040802Y023650D01*
X040751Y023659D01*
X040700Y023672D01*
X040651Y023688D01*
X040602Y023708D01*
X040556Y023732D01*
X040512Y023759D01*
X040469Y023790D01*
X040429Y023823D01*
X040392Y023860D01*
X040358Y023899D01*
X040327Y023941D01*
X040298Y023985D01*
X040274Y024031D01*
X040253Y024078D01*
X040235Y024128D01*
X040222Y024178D01*
X040212Y024229D01*
X040206Y024281D01*
X040204Y024333D01*
D12*
X029838Y001004D02*
X029517Y001004D01*
X029517Y000363D01*
X029517Y000577D02*
X029838Y000577D01*
X029944Y000684D01*
X029944Y000897D01*
X029838Y001004D01*
X029300Y001004D02*
X028873Y001004D01*
X028873Y000363D01*
X029300Y000363D01*
X029086Y000684D02*
X028873Y000684D01*
X028655Y000897D02*
X028655Y001004D01*
X028655Y000897D02*
X028442Y000684D01*
X028442Y000363D01*
X028442Y000684D02*
X028228Y000897D01*
X028228Y001004D01*
X028011Y000790D02*
X028011Y000363D01*
X028011Y000684D02*
X027584Y000684D01*
X027584Y000790D02*
X027797Y001004D01*
X028011Y000790D01*
X027584Y000790D02*
X027584Y000363D01*
X027366Y000363D02*
X026939Y000363D01*
X026939Y001004D01*
X026077Y000897D02*
X026077Y000684D01*
X025970Y000577D01*
X025650Y000577D01*
X025650Y000363D02*
X025650Y001004D01*
X025970Y001004D01*
X026077Y000897D01*
X025433Y000897D02*
X025433Y000470D01*
X025326Y000363D01*
X025112Y000363D01*
X025006Y000470D01*
X025006Y000897D01*
X025112Y001004D01*
X025326Y001004D01*
X025433Y000897D01*
X024788Y001004D02*
X024361Y001004D01*
X024574Y001004D02*
X024574Y000363D01*
X029731Y000577D02*
X029944Y000363D01*
D13*
X034331Y017333D03*
X035331Y017333D03*
X036331Y017333D03*
X037331Y017333D03*
X037331Y020333D03*
X036331Y020333D03*
X035331Y020333D03*
X034331Y020333D03*
D14*
X029823Y024343D03*
X027823Y024343D03*
X025823Y024343D03*
X023823Y024343D03*
X021823Y024343D03*
X019823Y024343D03*
X017823Y024343D03*
X015823Y024343D03*
X015823Y012343D03*
X017823Y012343D03*
X019823Y012343D03*
X021823Y012343D03*
X023823Y012343D03*
X025823Y012343D03*
X027823Y012343D03*
X029823Y012343D03*
X034823Y012343D03*
X036823Y012343D03*
X042841Y014342D03*
X042841Y016342D03*
X042841Y018342D03*
X042841Y020342D03*
D15*
X037331Y021583D03*
X037331Y022583D03*
X033831Y022583D03*
X033831Y021583D03*
X030081Y019333D03*
X029081Y019333D03*
X029831Y017833D03*
X029081Y017333D03*
X029831Y016833D03*
X022331Y016333D03*
X021331Y016333D03*
X021331Y018833D03*
X022331Y018833D03*
D16*
X024831Y021533D02*
X024831Y022133D01*
X025831Y022133D02*
X025831Y021533D01*
X026831Y021533D02*
X026831Y022133D01*
D17*
X030081Y021333D03*
X022331Y021333D03*
X030081Y015083D03*
D18*
X029081Y015083D03*
X029081Y021333D03*
X021331Y021333D03*
D19*
X017831Y021333D03*
X016831Y021333D03*
X015831Y021333D03*
X014831Y021333D03*
X013831Y021333D03*
X012331Y021333D03*
X011331Y021333D03*
X010331Y021333D03*
X033331Y015333D03*
X037331Y015333D03*
X039206Y016208D03*
X039206Y020208D03*
D20*
X040162Y020014D03*
X040162Y019227D03*
X040162Y018440D03*
X040162Y017652D03*
X040162Y016865D03*
X040162Y016077D03*
X040162Y015290D03*
X040162Y020802D03*
X040162Y021589D03*
X040162Y022377D03*
X031500Y022377D03*
X031500Y021589D03*
X031500Y020802D03*
X031500Y020014D03*
X031500Y019227D03*
X031500Y018440D03*
X031500Y017652D03*
X031500Y016865D03*
X031500Y016077D03*
X031500Y015290D03*
D21*
X019831Y016073D02*
X019831Y016593D01*
X018831Y016593D02*
X018831Y016073D01*
X017831Y016073D02*
X017831Y016593D01*
X016831Y016593D02*
X016831Y016073D01*
X015831Y016073D02*
X015831Y016593D01*
X014831Y016593D02*
X014831Y016073D01*
X013831Y016073D02*
X013831Y016593D01*
X012831Y016593D02*
X012831Y016073D01*
X011831Y016073D02*
X011831Y016593D01*
X011831Y019073D02*
X011831Y019593D01*
X012831Y019593D02*
X012831Y019073D01*
X013831Y019073D02*
X013831Y019593D01*
X014831Y019593D02*
X014831Y019073D01*
X015831Y019073D02*
X015831Y019593D01*
X016831Y019593D02*
X016831Y019073D01*
X017831Y019073D02*
X017831Y019593D01*
X018831Y019593D02*
X018831Y019073D01*
X019831Y019073D02*
X019831Y019593D01*
D22*
X033831Y023733D02*
X033831Y024433D01*
X037831Y024433D02*
X037831Y023733D01*
D23*
X042331Y022613D02*
X042331Y022053D01*
X043331Y022053D02*
X043331Y022613D01*
D24*
X037331Y021583D02*
X037331Y020333D01*
X037331Y021583D02*
X036831Y021583D01*
X035831Y022583D01*
X035831Y025583D01*
X030581Y025583D01*
X029831Y024833D01*
X029831Y023583D01*
X029081Y022833D01*
X029081Y021333D01*
X029081Y019333D01*
X029081Y017333D01*
X029081Y015083D01*
X029081Y014333D01*
X029831Y013583D01*
X030831Y013583D01*
X031456Y014208D01*
X031581Y014333D01*
X031581Y015333D01*
X029831Y013583D02*
X029831Y012333D01*
X021331Y016333D02*
X021331Y018833D01*
X021331Y021333D01*
X033831Y022583D02*
X035831Y022583D01*
D25*
X033831Y021583D02*
X033081Y021583D01*
X032331Y022333D01*
X031331Y022333D01*
X031500Y022377D01*
X031331Y022333D02*
X031081Y022333D01*
X030831Y022083D01*
X030831Y017333D01*
X030331Y016833D01*
X029831Y016833D01*
X031331Y015333D02*
X031500Y015290D01*
X031331Y015333D02*
X031331Y014333D01*
X031456Y014208D01*
X029823Y012343D02*
X029831Y012333D01*
X022331Y016333D02*
X022331Y018833D01*
X022331Y021333D01*
X015831Y024333D02*
X015823Y024343D01*
X015831Y024333D02*
X014831Y023333D01*
X014831Y021333D01*
X030081Y021333D02*
X030081Y019333D01*
D26*
X027831Y024333D02*
X027831Y025083D01*
X027206Y025708D01*
X025831Y025083D02*
X025581Y025333D01*
X019081Y025333D01*
X018831Y025083D01*
X018831Y023583D01*
X017831Y022583D01*
X017831Y021333D01*
X016831Y021333D02*
X016831Y025333D01*
X017206Y025708D01*
X020081Y024083D02*
X020081Y021333D01*
X019331Y020583D01*
X019331Y018083D02*
X019831Y017583D01*
X019831Y016333D01*
X021081Y015083D02*
X021956Y014208D01*
X024956Y014208D01*
X025456Y013708D01*
X026456Y013708D01*
X027831Y012333D01*
X025831Y012333D02*
X024456Y013708D01*
X021706Y013708D01*
X020706Y014708D01*
X014456Y014708D01*
X013956Y015208D01*
X013331Y015208D01*
X012831Y015833D01*
X012831Y016333D01*
X013831Y016333D02*
X013831Y015833D01*
X014581Y015083D01*
X021081Y015083D01*
X020456Y014333D02*
X014331Y014333D01*
X013831Y014833D01*
X013206Y014833D01*
X012581Y015458D01*
X012331Y015458D01*
X011831Y015958D01*
X011831Y016333D01*
X010831Y015458D02*
X011331Y014958D01*
X012456Y014958D01*
X012956Y014458D01*
X013706Y014458D01*
X014206Y013958D01*
X020206Y013958D01*
X021831Y012333D01*
X021456Y013333D02*
X020456Y014333D01*
X019331Y013583D02*
X014081Y013583D01*
X013581Y014083D01*
X012831Y014083D01*
X012331Y014583D01*
X010831Y014583D01*
X010331Y015083D01*
X010331Y019583D01*
X010831Y020083D01*
X012081Y020083D01*
X012831Y019333D01*
X011831Y019333D02*
X011081Y019333D01*
X010831Y019083D01*
X010831Y015458D01*
X019331Y013583D02*
X019831Y013083D01*
X019831Y012333D01*
X021456Y013333D02*
X022831Y013333D01*
X023831Y012333D01*
X025831Y024333D02*
X025831Y025083D01*
D27*
X019331Y021833D03*
M02*
