G75*
G70*
%OFA0B0*%
%FSLAX24Y24*%
%IPPOS*%
%LPD*%
%AMOC8*
5,1,8,0,0,1.08239X$1,22.5*
%
%ADD10C,0.0160*%
%ADD11C,0.0000*%
%ADD12C,0.0040*%
%ADD13C,0.0080*%
%ADD14C,0.0060*%
%ADD15C,0.0050*%
%ADD16C,0.0100*%
%ADD17C,0.0020*%
%ADD18R,0.0500X0.0350*%
%ADD19R,0.0140X0.0240*%
D10*
X004331Y004583D02*
X004331Y007083D01*
X003081Y005833D02*
X005581Y005833D01*
X011331Y010333D02*
X011331Y013333D01*
X009331Y013333D01*
X009331Y023333D01*
X011331Y023333D01*
X011331Y026333D01*
X042331Y026333D01*
X042331Y023333D01*
X044331Y023333D01*
X044331Y013333D01*
X042331Y013333D01*
X042331Y010333D01*
X011331Y010333D01*
X004331Y030333D02*
X004331Y032833D01*
X003081Y031583D02*
X005581Y031583D01*
X048581Y005833D02*
X051081Y005833D01*
X049831Y004583D02*
X049831Y007083D01*
D11*
X040204Y012333D02*
X040206Y012385D01*
X040212Y012437D01*
X040222Y012488D01*
X040235Y012538D01*
X040253Y012588D01*
X040274Y012635D01*
X040298Y012681D01*
X040327Y012725D01*
X040358Y012767D01*
X040392Y012806D01*
X040429Y012843D01*
X040469Y012876D01*
X040512Y012907D01*
X040556Y012934D01*
X040602Y012958D01*
X040651Y012978D01*
X040700Y012994D01*
X040751Y013007D01*
X040802Y013016D01*
X040854Y013021D01*
X040906Y013022D01*
X040958Y013019D01*
X041010Y013012D01*
X041061Y013001D01*
X041111Y012987D01*
X041160Y012968D01*
X041207Y012946D01*
X041252Y012921D01*
X041296Y012892D01*
X041337Y012860D01*
X041376Y012825D01*
X041411Y012787D01*
X041444Y012746D01*
X041474Y012704D01*
X041500Y012659D01*
X041523Y012612D01*
X041542Y012563D01*
X041558Y012513D01*
X041570Y012463D01*
X041578Y012411D01*
X041582Y012359D01*
X041582Y012307D01*
X041578Y012255D01*
X041570Y012203D01*
X041558Y012153D01*
X041542Y012103D01*
X041523Y012054D01*
X041500Y012007D01*
X041474Y011962D01*
X041444Y011920D01*
X041411Y011879D01*
X041376Y011841D01*
X041337Y011806D01*
X041296Y011774D01*
X041252Y011745D01*
X041207Y011720D01*
X041160Y011698D01*
X041111Y011679D01*
X041061Y011665D01*
X041010Y011654D01*
X040958Y011647D01*
X040906Y011644D01*
X040854Y011645D01*
X040802Y011650D01*
X040751Y011659D01*
X040700Y011672D01*
X040651Y011688D01*
X040602Y011708D01*
X040556Y011732D01*
X040512Y011759D01*
X040469Y011790D01*
X040429Y011823D01*
X040392Y011860D01*
X040358Y011899D01*
X040327Y011941D01*
X040298Y011985D01*
X040274Y012031D01*
X040253Y012078D01*
X040235Y012128D01*
X040222Y012178D01*
X040212Y012229D01*
X040206Y012281D01*
X040204Y012333D01*
X025181Y015933D02*
X025183Y015983D01*
X025189Y016033D01*
X025199Y016083D01*
X025212Y016131D01*
X025229Y016179D01*
X025250Y016225D01*
X025274Y016269D01*
X025302Y016311D01*
X025333Y016351D01*
X025367Y016388D01*
X025404Y016423D01*
X025443Y016454D01*
X025484Y016483D01*
X025528Y016508D01*
X025574Y016530D01*
X025621Y016548D01*
X025669Y016562D01*
X025718Y016573D01*
X025768Y016580D01*
X025818Y016583D01*
X025869Y016582D01*
X025919Y016577D01*
X025969Y016568D01*
X026017Y016556D01*
X026065Y016539D01*
X026111Y016519D01*
X026156Y016496D01*
X026199Y016469D01*
X026239Y016439D01*
X026277Y016406D01*
X026312Y016370D01*
X026345Y016331D01*
X026374Y016290D01*
X026400Y016247D01*
X026423Y016202D01*
X026442Y016155D01*
X026457Y016107D01*
X026469Y016058D01*
X026477Y016008D01*
X026481Y015958D01*
X026481Y015908D01*
X026477Y015858D01*
X026469Y015808D01*
X026457Y015759D01*
X026442Y015711D01*
X026423Y015664D01*
X026400Y015619D01*
X026374Y015576D01*
X026345Y015535D01*
X026312Y015496D01*
X026277Y015460D01*
X026239Y015427D01*
X026199Y015397D01*
X026156Y015370D01*
X026111Y015347D01*
X026065Y015327D01*
X026017Y015310D01*
X025969Y015298D01*
X025919Y015289D01*
X025869Y015284D01*
X025818Y015283D01*
X025768Y015286D01*
X025718Y015293D01*
X025669Y015304D01*
X025621Y015318D01*
X025574Y015336D01*
X025528Y015358D01*
X025484Y015383D01*
X025443Y015412D01*
X025404Y015443D01*
X025367Y015478D01*
X025333Y015515D01*
X025302Y015555D01*
X025274Y015597D01*
X025250Y015641D01*
X025229Y015687D01*
X025212Y015735D01*
X025199Y015783D01*
X025189Y015833D01*
X025183Y015883D01*
X025181Y015933D01*
X012079Y012333D02*
X012081Y012385D01*
X012087Y012437D01*
X012097Y012488D01*
X012110Y012538D01*
X012128Y012588D01*
X012149Y012635D01*
X012173Y012681D01*
X012202Y012725D01*
X012233Y012767D01*
X012267Y012806D01*
X012304Y012843D01*
X012344Y012876D01*
X012387Y012907D01*
X012431Y012934D01*
X012477Y012958D01*
X012526Y012978D01*
X012575Y012994D01*
X012626Y013007D01*
X012677Y013016D01*
X012729Y013021D01*
X012781Y013022D01*
X012833Y013019D01*
X012885Y013012D01*
X012936Y013001D01*
X012986Y012987D01*
X013035Y012968D01*
X013082Y012946D01*
X013127Y012921D01*
X013171Y012892D01*
X013212Y012860D01*
X013251Y012825D01*
X013286Y012787D01*
X013319Y012746D01*
X013349Y012704D01*
X013375Y012659D01*
X013398Y012612D01*
X013417Y012563D01*
X013433Y012513D01*
X013445Y012463D01*
X013453Y012411D01*
X013457Y012359D01*
X013457Y012307D01*
X013453Y012255D01*
X013445Y012203D01*
X013433Y012153D01*
X013417Y012103D01*
X013398Y012054D01*
X013375Y012007D01*
X013349Y011962D01*
X013319Y011920D01*
X013286Y011879D01*
X013251Y011841D01*
X013212Y011806D01*
X013171Y011774D01*
X013127Y011745D01*
X013082Y011720D01*
X013035Y011698D01*
X012986Y011679D01*
X012936Y011665D01*
X012885Y011654D01*
X012833Y011647D01*
X012781Y011644D01*
X012729Y011645D01*
X012677Y011650D01*
X012626Y011659D01*
X012575Y011672D01*
X012526Y011688D01*
X012477Y011708D01*
X012431Y011732D01*
X012387Y011759D01*
X012344Y011790D01*
X012304Y011823D01*
X012267Y011860D01*
X012233Y011899D01*
X012202Y011941D01*
X012173Y011985D01*
X012149Y012031D01*
X012128Y012078D01*
X012110Y012128D01*
X012097Y012178D01*
X012087Y012229D01*
X012081Y012281D01*
X012079Y012333D01*
X012079Y024333D02*
X012081Y024385D01*
X012087Y024437D01*
X012097Y024488D01*
X012110Y024538D01*
X012128Y024588D01*
X012149Y024635D01*
X012173Y024681D01*
X012202Y024725D01*
X012233Y024767D01*
X012267Y024806D01*
X012304Y024843D01*
X012344Y024876D01*
X012387Y024907D01*
X012431Y024934D01*
X012477Y024958D01*
X012526Y024978D01*
X012575Y024994D01*
X012626Y025007D01*
X012677Y025016D01*
X012729Y025021D01*
X012781Y025022D01*
X012833Y025019D01*
X012885Y025012D01*
X012936Y025001D01*
X012986Y024987D01*
X013035Y024968D01*
X013082Y024946D01*
X013127Y024921D01*
X013171Y024892D01*
X013212Y024860D01*
X013251Y024825D01*
X013286Y024787D01*
X013319Y024746D01*
X013349Y024704D01*
X013375Y024659D01*
X013398Y024612D01*
X013417Y024563D01*
X013433Y024513D01*
X013445Y024463D01*
X013453Y024411D01*
X013457Y024359D01*
X013457Y024307D01*
X013453Y024255D01*
X013445Y024203D01*
X013433Y024153D01*
X013417Y024103D01*
X013398Y024054D01*
X013375Y024007D01*
X013349Y023962D01*
X013319Y023920D01*
X013286Y023879D01*
X013251Y023841D01*
X013212Y023806D01*
X013171Y023774D01*
X013127Y023745D01*
X013082Y023720D01*
X013035Y023698D01*
X012986Y023679D01*
X012936Y023665D01*
X012885Y023654D01*
X012833Y023647D01*
X012781Y023644D01*
X012729Y023645D01*
X012677Y023650D01*
X012626Y023659D01*
X012575Y023672D01*
X012526Y023688D01*
X012477Y023708D01*
X012431Y023732D01*
X012387Y023759D01*
X012344Y023790D01*
X012304Y023823D01*
X012267Y023860D01*
X012233Y023899D01*
X012202Y023941D01*
X012173Y023985D01*
X012149Y024031D01*
X012128Y024078D01*
X012110Y024128D01*
X012097Y024178D01*
X012087Y024229D01*
X012081Y024281D01*
X012079Y024333D01*
X040204Y024333D02*
X040206Y024385D01*
X040212Y024437D01*
X040222Y024488D01*
X040235Y024538D01*
X040253Y024588D01*
X040274Y024635D01*
X040298Y024681D01*
X040327Y024725D01*
X040358Y024767D01*
X040392Y024806D01*
X040429Y024843D01*
X040469Y024876D01*
X040512Y024907D01*
X040556Y024934D01*
X040602Y024958D01*
X040651Y024978D01*
X040700Y024994D01*
X040751Y025007D01*
X040802Y025016D01*
X040854Y025021D01*
X040906Y025022D01*
X040958Y025019D01*
X041010Y025012D01*
X041061Y025001D01*
X041111Y024987D01*
X041160Y024968D01*
X041207Y024946D01*
X041252Y024921D01*
X041296Y024892D01*
X041337Y024860D01*
X041376Y024825D01*
X041411Y024787D01*
X041444Y024746D01*
X041474Y024704D01*
X041500Y024659D01*
X041523Y024612D01*
X041542Y024563D01*
X041558Y024513D01*
X041570Y024463D01*
X041578Y024411D01*
X041582Y024359D01*
X041582Y024307D01*
X041578Y024255D01*
X041570Y024203D01*
X041558Y024153D01*
X041542Y024103D01*
X041523Y024054D01*
X041500Y024007D01*
X041474Y023962D01*
X041444Y023920D01*
X041411Y023879D01*
X041376Y023841D01*
X041337Y023806D01*
X041296Y023774D01*
X041252Y023745D01*
X041207Y023720D01*
X041160Y023698D01*
X041111Y023679D01*
X041061Y023665D01*
X041010Y023654D01*
X040958Y023647D01*
X040906Y023644D01*
X040854Y023645D01*
X040802Y023650D01*
X040751Y023659D01*
X040700Y023672D01*
X040651Y023688D01*
X040602Y023708D01*
X040556Y023732D01*
X040512Y023759D01*
X040469Y023790D01*
X040429Y023823D01*
X040392Y023860D01*
X040358Y023899D01*
X040327Y023941D01*
X040298Y023985D01*
X040274Y024031D01*
X040253Y024078D01*
X040235Y024128D01*
X040222Y024178D01*
X040212Y024229D01*
X040206Y024281D01*
X040204Y024333D01*
D12*
X028393Y021914D02*
X028393Y021837D01*
X028086Y021530D01*
X028086Y021453D01*
X027933Y021530D02*
X027856Y021453D01*
X027703Y021453D01*
X027626Y021530D01*
X027626Y021837D01*
X027703Y021914D01*
X027856Y021914D01*
X027933Y021837D01*
X028086Y021914D02*
X028393Y021914D01*
X023518Y020712D02*
X023518Y020635D01*
X023442Y020559D01*
X023288Y020559D01*
X023211Y020635D01*
X023211Y020712D01*
X023288Y020789D01*
X023442Y020789D01*
X023518Y020712D01*
X023442Y020559D02*
X023518Y020482D01*
X023518Y020405D01*
X023442Y020328D01*
X023288Y020328D01*
X023211Y020405D01*
X023211Y020482D01*
X023288Y020559D01*
X023058Y020712D02*
X022981Y020789D01*
X022828Y020789D01*
X022751Y020712D01*
X022751Y020405D01*
X022828Y020328D01*
X022981Y020328D01*
X023058Y020405D01*
X014748Y025103D02*
X014441Y025103D01*
X014748Y025410D01*
X014748Y025487D01*
X014671Y025564D01*
X014518Y025564D01*
X014441Y025487D01*
X014287Y025564D02*
X014134Y025564D01*
X014211Y025564D02*
X014211Y025180D01*
X014134Y025103D01*
X014057Y025103D01*
X013980Y025180D01*
X012465Y022814D02*
X012465Y022353D01*
X012618Y022353D02*
X012311Y022353D01*
X012158Y022353D02*
X011851Y022814D01*
X012158Y022814D02*
X011851Y022353D01*
X012311Y022660D02*
X012465Y022814D01*
X011587Y015064D02*
X011664Y014987D01*
X011664Y014834D01*
X011587Y014757D01*
X011357Y014757D01*
X011357Y014603D02*
X011357Y015064D01*
X011587Y015064D01*
X011818Y014834D02*
X011894Y014910D01*
X012048Y014910D01*
X012124Y014834D01*
X012124Y014757D01*
X011818Y014757D01*
X011818Y014680D02*
X011818Y014834D01*
X011818Y014680D02*
X011894Y014603D01*
X012048Y014603D01*
X012278Y014603D02*
X012278Y014910D01*
X012278Y014757D02*
X012431Y014910D01*
X012508Y014910D01*
X012662Y014910D02*
X012662Y014603D01*
X012662Y014757D02*
X012815Y014910D01*
X012892Y014910D01*
X013045Y014834D02*
X013122Y014910D01*
X013275Y014910D01*
X013352Y014834D01*
X013352Y014680D01*
X013275Y014603D01*
X013122Y014603D01*
X013045Y014680D01*
X013045Y014834D01*
X013506Y014910D02*
X013736Y014910D01*
X013813Y014834D01*
X013813Y014603D01*
X013506Y014603D02*
X013506Y014910D01*
X013122Y014314D02*
X012892Y014084D01*
X013199Y014084D01*
X013122Y014314D02*
X013122Y013853D01*
X012738Y013853D02*
X012431Y013853D01*
X012585Y013853D02*
X012585Y014314D01*
X012431Y014160D01*
X012278Y014237D02*
X011971Y013930D01*
X012048Y013853D01*
X012201Y013853D01*
X012278Y013930D01*
X012278Y014237D01*
X012201Y014314D01*
X012048Y014314D01*
X011971Y014237D01*
X011971Y013930D01*
X011818Y013853D02*
X011511Y013853D01*
X011818Y014160D01*
X011818Y014237D01*
X011741Y014314D01*
X011587Y014314D01*
X011511Y014237D01*
X011204Y014603D02*
X011127Y014603D01*
X011127Y014680D01*
X011204Y014680D01*
X011204Y014603D01*
X010897Y014680D02*
X010897Y015064D01*
X010973Y015064D02*
X010820Y015064D01*
X010897Y014680D02*
X010820Y014603D01*
X010743Y014603D01*
X010667Y014680D01*
X010513Y014680D02*
X010513Y014603D01*
X010436Y014603D01*
X010436Y014680D01*
X010513Y014680D01*
X010283Y014680D02*
X010283Y014987D01*
X010206Y015064D01*
X009976Y015064D01*
X009976Y014603D01*
X010206Y014603D01*
X010283Y014680D01*
X010129Y014314D02*
X009976Y014160D01*
X009976Y014007D01*
X010129Y013853D01*
X010283Y013930D02*
X010360Y013853D01*
X010590Y013853D01*
X010743Y013853D02*
X010897Y014007D01*
X010897Y014160D01*
X010743Y014314D01*
X010590Y014160D02*
X010360Y014160D01*
X010283Y014084D01*
X010283Y013930D01*
X014134Y012064D02*
X014287Y012064D01*
X014211Y012064D02*
X014211Y011680D01*
X014134Y011603D01*
X014057Y011603D01*
X013980Y011680D01*
X014441Y011680D02*
X014518Y011603D01*
X014671Y011603D01*
X014748Y011680D01*
X014748Y011757D01*
X014671Y011834D01*
X014594Y011834D01*
X014671Y011834D02*
X014748Y011910D01*
X014748Y011987D01*
X014671Y012064D01*
X014518Y012064D01*
X014441Y011987D01*
X027876Y014155D02*
X027953Y014078D01*
X028106Y014078D01*
X028183Y014155D01*
X028336Y014078D02*
X028643Y014078D01*
X028490Y014078D02*
X028490Y014539D01*
X028336Y014385D01*
X028183Y014462D02*
X028106Y014539D01*
X027953Y014539D01*
X027876Y014462D01*
X027876Y014155D01*
X038355Y011180D02*
X038432Y011103D01*
X038509Y011103D01*
X038586Y011180D01*
X038586Y011564D01*
X038662Y011564D02*
X038509Y011564D01*
X038816Y011334D02*
X039123Y011334D01*
X039046Y011564D02*
X039046Y011103D01*
X038816Y011334D02*
X039046Y011564D01*
X039167Y013478D02*
X038936Y013478D01*
X038936Y013939D01*
X039167Y013939D01*
X039243Y013862D01*
X039243Y013785D01*
X039167Y013709D01*
X038936Y013709D01*
X039167Y013709D02*
X039243Y013632D01*
X039243Y013555D01*
X039167Y013478D01*
X039397Y013478D02*
X039704Y013478D01*
X039550Y013478D02*
X039550Y013939D01*
X039397Y013785D01*
X038783Y013939D02*
X038476Y013478D01*
X038783Y013478D02*
X038476Y013939D01*
X040480Y013680D02*
X040557Y013603D01*
X040634Y013603D01*
X040711Y013680D01*
X040711Y014064D01*
X040787Y014064D02*
X040634Y014064D01*
X040941Y013910D02*
X041094Y014064D01*
X041094Y013603D01*
X040941Y013603D02*
X041248Y013603D01*
D13*
X041236Y013342D02*
X041355Y013342D01*
X041355Y021342D01*
X041236Y021342D01*
X041236Y013342D01*
X041355Y013342D02*
X041600Y013342D01*
X041867Y013342D01*
X042061Y013342D01*
X043635Y013342D01*
X043825Y013342D01*
X044425Y013342D01*
X044425Y021342D01*
X043825Y021342D01*
X043635Y021342D01*
X042061Y021342D01*
X041867Y021342D01*
X041867Y013342D01*
X041600Y013342D02*
X041600Y021342D01*
X041521Y021342D01*
X041355Y021342D01*
X041462Y021463D02*
X041521Y021392D01*
X041521Y021342D01*
X041600Y021342D02*
X041684Y021342D01*
X041867Y021342D01*
X041743Y021463D02*
X041684Y021392D01*
X041684Y021342D01*
X041743Y021463D02*
X041743Y021566D01*
X041462Y021566D01*
X041462Y021463D01*
X040595Y022916D02*
X040595Y014119D01*
X031067Y014119D01*
X031067Y022916D01*
X033557Y024906D01*
X038105Y024906D01*
X040595Y022916D01*
X043825Y021342D02*
X043825Y013342D01*
X042087Y014342D02*
X042089Y014396D01*
X042095Y014451D01*
X042105Y014504D01*
X042118Y014557D01*
X042136Y014608D01*
X042157Y014659D01*
X042181Y014707D01*
X042209Y014754D01*
X042241Y014798D01*
X042275Y014840D01*
X042313Y014880D01*
X042353Y014917D01*
X042396Y014950D01*
X042441Y014981D01*
X042488Y015008D01*
X042537Y015032D01*
X042587Y015052D01*
X042639Y015069D01*
X042692Y015081D01*
X042746Y015090D01*
X042800Y015095D01*
X042855Y015096D01*
X042909Y015093D01*
X042963Y015086D01*
X043016Y015075D01*
X043069Y015061D01*
X043120Y015042D01*
X043170Y015020D01*
X043218Y014995D01*
X043264Y014966D01*
X043308Y014934D01*
X043350Y014899D01*
X043388Y014861D01*
X043424Y014820D01*
X043457Y014776D01*
X043487Y014731D01*
X043513Y014683D01*
X043536Y014634D01*
X043556Y014583D01*
X043571Y014531D01*
X043583Y014477D01*
X043591Y014424D01*
X043595Y014369D01*
X043595Y014315D01*
X043591Y014260D01*
X043583Y014207D01*
X043571Y014153D01*
X043556Y014101D01*
X043536Y014050D01*
X043513Y014001D01*
X043487Y013953D01*
X043457Y013908D01*
X043424Y013864D01*
X043388Y013823D01*
X043350Y013785D01*
X043308Y013750D01*
X043264Y013718D01*
X043218Y013689D01*
X043170Y013664D01*
X043120Y013642D01*
X043069Y013623D01*
X043016Y013609D01*
X042963Y013598D01*
X042909Y013591D01*
X042855Y013588D01*
X042800Y013589D01*
X042746Y013594D01*
X042692Y013603D01*
X042639Y013615D01*
X042587Y013632D01*
X042537Y013652D01*
X042488Y013676D01*
X042441Y013703D01*
X042396Y013734D01*
X042353Y013767D01*
X042313Y013804D01*
X042275Y013844D01*
X042241Y013886D01*
X042209Y013930D01*
X042181Y013977D01*
X042157Y014025D01*
X042136Y014076D01*
X042118Y014127D01*
X042105Y014180D01*
X042095Y014233D01*
X042089Y014288D01*
X042087Y014342D01*
X042087Y016342D02*
X042089Y016396D01*
X042095Y016451D01*
X042105Y016504D01*
X042118Y016557D01*
X042136Y016608D01*
X042157Y016659D01*
X042181Y016707D01*
X042209Y016754D01*
X042241Y016798D01*
X042275Y016840D01*
X042313Y016880D01*
X042353Y016917D01*
X042396Y016950D01*
X042441Y016981D01*
X042488Y017008D01*
X042537Y017032D01*
X042587Y017052D01*
X042639Y017069D01*
X042692Y017081D01*
X042746Y017090D01*
X042800Y017095D01*
X042855Y017096D01*
X042909Y017093D01*
X042963Y017086D01*
X043016Y017075D01*
X043069Y017061D01*
X043120Y017042D01*
X043170Y017020D01*
X043218Y016995D01*
X043264Y016966D01*
X043308Y016934D01*
X043350Y016899D01*
X043388Y016861D01*
X043424Y016820D01*
X043457Y016776D01*
X043487Y016731D01*
X043513Y016683D01*
X043536Y016634D01*
X043556Y016583D01*
X043571Y016531D01*
X043583Y016477D01*
X043591Y016424D01*
X043595Y016369D01*
X043595Y016315D01*
X043591Y016260D01*
X043583Y016207D01*
X043571Y016153D01*
X043556Y016101D01*
X043536Y016050D01*
X043513Y016001D01*
X043487Y015953D01*
X043457Y015908D01*
X043424Y015864D01*
X043388Y015823D01*
X043350Y015785D01*
X043308Y015750D01*
X043264Y015718D01*
X043218Y015689D01*
X043170Y015664D01*
X043120Y015642D01*
X043069Y015623D01*
X043016Y015609D01*
X042963Y015598D01*
X042909Y015591D01*
X042855Y015588D01*
X042800Y015589D01*
X042746Y015594D01*
X042692Y015603D01*
X042639Y015615D01*
X042587Y015632D01*
X042537Y015652D01*
X042488Y015676D01*
X042441Y015703D01*
X042396Y015734D01*
X042353Y015767D01*
X042313Y015804D01*
X042275Y015844D01*
X042241Y015886D01*
X042209Y015930D01*
X042181Y015977D01*
X042157Y016025D01*
X042136Y016076D01*
X042118Y016127D01*
X042105Y016180D01*
X042095Y016233D01*
X042089Y016288D01*
X042087Y016342D01*
X039678Y016968D02*
X038734Y016968D01*
X038734Y019448D01*
X039678Y019448D01*
X039678Y016968D01*
X036571Y015806D02*
X036571Y014861D01*
X034091Y014861D01*
X034091Y015806D01*
X036571Y015806D01*
X037823Y013928D02*
X033823Y013928D01*
X033823Y013327D01*
X033823Y013137D01*
X033823Y011563D01*
X033823Y011370D01*
X037823Y011370D01*
X037823Y011102D01*
X037823Y010857D01*
X037823Y010739D01*
X033823Y010739D01*
X033823Y010857D01*
X037823Y010857D01*
X037823Y011102D02*
X033823Y011102D01*
X033823Y011023D01*
X033823Y010857D01*
X033702Y010964D02*
X033772Y011023D01*
X033823Y011023D01*
X033823Y011102D02*
X033823Y011186D01*
X033823Y011370D01*
X033702Y011246D02*
X033772Y011186D01*
X033823Y011186D01*
X033702Y011246D02*
X033598Y011246D01*
X033598Y010964D01*
X033702Y010964D01*
X034069Y012343D02*
X034071Y012397D01*
X034077Y012452D01*
X034087Y012505D01*
X034100Y012558D01*
X034118Y012609D01*
X034139Y012660D01*
X034163Y012708D01*
X034191Y012755D01*
X034223Y012799D01*
X034257Y012841D01*
X034295Y012881D01*
X034335Y012918D01*
X034378Y012951D01*
X034423Y012982D01*
X034470Y013009D01*
X034519Y013033D01*
X034569Y013053D01*
X034621Y013070D01*
X034674Y013082D01*
X034728Y013091D01*
X034782Y013096D01*
X034837Y013097D01*
X034891Y013094D01*
X034945Y013087D01*
X034998Y013076D01*
X035051Y013062D01*
X035102Y013043D01*
X035152Y013021D01*
X035200Y012996D01*
X035246Y012967D01*
X035290Y012935D01*
X035332Y012900D01*
X035370Y012862D01*
X035406Y012821D01*
X035439Y012777D01*
X035469Y012732D01*
X035495Y012684D01*
X035518Y012635D01*
X035538Y012584D01*
X035553Y012532D01*
X035565Y012478D01*
X035573Y012425D01*
X035577Y012370D01*
X035577Y012316D01*
X035573Y012261D01*
X035565Y012208D01*
X035553Y012154D01*
X035538Y012102D01*
X035518Y012051D01*
X035495Y012002D01*
X035469Y011954D01*
X035439Y011909D01*
X035406Y011865D01*
X035370Y011824D01*
X035332Y011786D01*
X035290Y011751D01*
X035246Y011719D01*
X035200Y011690D01*
X035152Y011665D01*
X035102Y011643D01*
X035051Y011624D01*
X034998Y011610D01*
X034945Y011599D01*
X034891Y011592D01*
X034837Y011589D01*
X034782Y011590D01*
X034728Y011595D01*
X034674Y011604D01*
X034621Y011616D01*
X034569Y011633D01*
X034519Y011653D01*
X034470Y011677D01*
X034423Y011704D01*
X034378Y011735D01*
X034335Y011768D01*
X034295Y011805D01*
X034257Y011845D01*
X034223Y011887D01*
X034191Y011931D01*
X034163Y011978D01*
X034139Y012026D01*
X034118Y012077D01*
X034100Y012128D01*
X034087Y012181D01*
X034077Y012234D01*
X034071Y012289D01*
X034069Y012343D01*
X033823Y013327D02*
X037823Y013327D01*
X037823Y013928D01*
X037823Y013327D02*
X037823Y013137D01*
X037823Y011563D01*
X037823Y011370D01*
X036069Y012343D02*
X036071Y012397D01*
X036077Y012452D01*
X036087Y012505D01*
X036100Y012558D01*
X036118Y012609D01*
X036139Y012660D01*
X036163Y012708D01*
X036191Y012755D01*
X036223Y012799D01*
X036257Y012841D01*
X036295Y012881D01*
X036335Y012918D01*
X036378Y012951D01*
X036423Y012982D01*
X036470Y013009D01*
X036519Y013033D01*
X036569Y013053D01*
X036621Y013070D01*
X036674Y013082D01*
X036728Y013091D01*
X036782Y013096D01*
X036837Y013097D01*
X036891Y013094D01*
X036945Y013087D01*
X036998Y013076D01*
X037051Y013062D01*
X037102Y013043D01*
X037152Y013021D01*
X037200Y012996D01*
X037246Y012967D01*
X037290Y012935D01*
X037332Y012900D01*
X037370Y012862D01*
X037406Y012821D01*
X037439Y012777D01*
X037469Y012732D01*
X037495Y012684D01*
X037518Y012635D01*
X037538Y012584D01*
X037553Y012532D01*
X037565Y012478D01*
X037573Y012425D01*
X037577Y012370D01*
X037577Y012316D01*
X037573Y012261D01*
X037565Y012208D01*
X037553Y012154D01*
X037538Y012102D01*
X037518Y012051D01*
X037495Y012002D01*
X037469Y011954D01*
X037439Y011909D01*
X037406Y011865D01*
X037370Y011824D01*
X037332Y011786D01*
X037290Y011751D01*
X037246Y011719D01*
X037200Y011690D01*
X037152Y011665D01*
X037102Y011643D01*
X037051Y011624D01*
X036998Y011610D01*
X036945Y011599D01*
X036891Y011592D01*
X036837Y011589D01*
X036782Y011590D01*
X036728Y011595D01*
X036674Y011604D01*
X036621Y011616D01*
X036569Y011633D01*
X036519Y011653D01*
X036470Y011677D01*
X036423Y011704D01*
X036378Y011735D01*
X036335Y011768D01*
X036295Y011805D01*
X036257Y011845D01*
X036223Y011887D01*
X036191Y011931D01*
X036163Y011978D01*
X036139Y012026D01*
X036118Y012077D01*
X036100Y012128D01*
X036087Y012181D01*
X036077Y012234D01*
X036071Y012289D01*
X036069Y012343D01*
X030823Y011563D02*
X030823Y011370D01*
X030823Y011102D01*
X030823Y010857D01*
X030823Y010739D01*
X014823Y010739D01*
X014823Y010857D01*
X030823Y010857D01*
X030823Y011102D02*
X014823Y011102D01*
X014823Y011023D01*
X014823Y010857D01*
X014702Y010964D02*
X014772Y011023D01*
X014823Y011023D01*
X014823Y011102D02*
X014823Y011186D01*
X014823Y011370D01*
X030823Y011370D01*
X030823Y011563D02*
X030823Y013137D01*
X030823Y013327D01*
X030823Y013928D01*
X014823Y013928D01*
X014823Y013327D01*
X014823Y013137D01*
X014823Y011563D01*
X014823Y011370D01*
X014702Y011246D02*
X014772Y011186D01*
X014823Y011186D01*
X014702Y011246D02*
X014598Y011246D01*
X014598Y010964D01*
X014702Y010964D01*
X015069Y012343D02*
X015071Y012397D01*
X015077Y012452D01*
X015087Y012505D01*
X015100Y012558D01*
X015118Y012609D01*
X015139Y012660D01*
X015163Y012708D01*
X015191Y012755D01*
X015223Y012799D01*
X015257Y012841D01*
X015295Y012881D01*
X015335Y012918D01*
X015378Y012951D01*
X015423Y012982D01*
X015470Y013009D01*
X015519Y013033D01*
X015569Y013053D01*
X015621Y013070D01*
X015674Y013082D01*
X015728Y013091D01*
X015782Y013096D01*
X015837Y013097D01*
X015891Y013094D01*
X015945Y013087D01*
X015998Y013076D01*
X016051Y013062D01*
X016102Y013043D01*
X016152Y013021D01*
X016200Y012996D01*
X016246Y012967D01*
X016290Y012935D01*
X016332Y012900D01*
X016370Y012862D01*
X016406Y012821D01*
X016439Y012777D01*
X016469Y012732D01*
X016495Y012684D01*
X016518Y012635D01*
X016538Y012584D01*
X016553Y012532D01*
X016565Y012478D01*
X016573Y012425D01*
X016577Y012370D01*
X016577Y012316D01*
X016573Y012261D01*
X016565Y012208D01*
X016553Y012154D01*
X016538Y012102D01*
X016518Y012051D01*
X016495Y012002D01*
X016469Y011954D01*
X016439Y011909D01*
X016406Y011865D01*
X016370Y011824D01*
X016332Y011786D01*
X016290Y011751D01*
X016246Y011719D01*
X016200Y011690D01*
X016152Y011665D01*
X016102Y011643D01*
X016051Y011624D01*
X015998Y011610D01*
X015945Y011599D01*
X015891Y011592D01*
X015837Y011589D01*
X015782Y011590D01*
X015728Y011595D01*
X015674Y011604D01*
X015621Y011616D01*
X015569Y011633D01*
X015519Y011653D01*
X015470Y011677D01*
X015423Y011704D01*
X015378Y011735D01*
X015335Y011768D01*
X015295Y011805D01*
X015257Y011845D01*
X015223Y011887D01*
X015191Y011931D01*
X015163Y011978D01*
X015139Y012026D01*
X015118Y012077D01*
X015100Y012128D01*
X015087Y012181D01*
X015077Y012234D01*
X015071Y012289D01*
X015069Y012343D01*
X014823Y013327D02*
X030823Y013327D01*
X029069Y012343D02*
X029071Y012397D01*
X029077Y012452D01*
X029087Y012505D01*
X029100Y012558D01*
X029118Y012609D01*
X029139Y012660D01*
X029163Y012708D01*
X029191Y012755D01*
X029223Y012799D01*
X029257Y012841D01*
X029295Y012881D01*
X029335Y012918D01*
X029378Y012951D01*
X029423Y012982D01*
X029470Y013009D01*
X029519Y013033D01*
X029569Y013053D01*
X029621Y013070D01*
X029674Y013082D01*
X029728Y013091D01*
X029782Y013096D01*
X029837Y013097D01*
X029891Y013094D01*
X029945Y013087D01*
X029998Y013076D01*
X030051Y013062D01*
X030102Y013043D01*
X030152Y013021D01*
X030200Y012996D01*
X030246Y012967D01*
X030290Y012935D01*
X030332Y012900D01*
X030370Y012862D01*
X030406Y012821D01*
X030439Y012777D01*
X030469Y012732D01*
X030495Y012684D01*
X030518Y012635D01*
X030538Y012584D01*
X030553Y012532D01*
X030565Y012478D01*
X030573Y012425D01*
X030577Y012370D01*
X030577Y012316D01*
X030573Y012261D01*
X030565Y012208D01*
X030553Y012154D01*
X030538Y012102D01*
X030518Y012051D01*
X030495Y012002D01*
X030469Y011954D01*
X030439Y011909D01*
X030406Y011865D01*
X030370Y011824D01*
X030332Y011786D01*
X030290Y011751D01*
X030246Y011719D01*
X030200Y011690D01*
X030152Y011665D01*
X030102Y011643D01*
X030051Y011624D01*
X029998Y011610D01*
X029945Y011599D01*
X029891Y011592D01*
X029837Y011589D01*
X029782Y011590D01*
X029728Y011595D01*
X029674Y011604D01*
X029621Y011616D01*
X029569Y011633D01*
X029519Y011653D01*
X029470Y011677D01*
X029423Y011704D01*
X029378Y011735D01*
X029335Y011768D01*
X029295Y011805D01*
X029257Y011845D01*
X029223Y011887D01*
X029191Y011931D01*
X029163Y011978D01*
X029139Y012026D01*
X029118Y012077D01*
X029100Y012128D01*
X029087Y012181D01*
X029077Y012234D01*
X029071Y012289D01*
X029069Y012343D01*
X027069Y012343D02*
X027071Y012397D01*
X027077Y012452D01*
X027087Y012505D01*
X027100Y012558D01*
X027118Y012609D01*
X027139Y012660D01*
X027163Y012708D01*
X027191Y012755D01*
X027223Y012799D01*
X027257Y012841D01*
X027295Y012881D01*
X027335Y012918D01*
X027378Y012951D01*
X027423Y012982D01*
X027470Y013009D01*
X027519Y013033D01*
X027569Y013053D01*
X027621Y013070D01*
X027674Y013082D01*
X027728Y013091D01*
X027782Y013096D01*
X027837Y013097D01*
X027891Y013094D01*
X027945Y013087D01*
X027998Y013076D01*
X028051Y013062D01*
X028102Y013043D01*
X028152Y013021D01*
X028200Y012996D01*
X028246Y012967D01*
X028290Y012935D01*
X028332Y012900D01*
X028370Y012862D01*
X028406Y012821D01*
X028439Y012777D01*
X028469Y012732D01*
X028495Y012684D01*
X028518Y012635D01*
X028538Y012584D01*
X028553Y012532D01*
X028565Y012478D01*
X028573Y012425D01*
X028577Y012370D01*
X028577Y012316D01*
X028573Y012261D01*
X028565Y012208D01*
X028553Y012154D01*
X028538Y012102D01*
X028518Y012051D01*
X028495Y012002D01*
X028469Y011954D01*
X028439Y011909D01*
X028406Y011865D01*
X028370Y011824D01*
X028332Y011786D01*
X028290Y011751D01*
X028246Y011719D01*
X028200Y011690D01*
X028152Y011665D01*
X028102Y011643D01*
X028051Y011624D01*
X027998Y011610D01*
X027945Y011599D01*
X027891Y011592D01*
X027837Y011589D01*
X027782Y011590D01*
X027728Y011595D01*
X027674Y011604D01*
X027621Y011616D01*
X027569Y011633D01*
X027519Y011653D01*
X027470Y011677D01*
X027423Y011704D01*
X027378Y011735D01*
X027335Y011768D01*
X027295Y011805D01*
X027257Y011845D01*
X027223Y011887D01*
X027191Y011931D01*
X027163Y011978D01*
X027139Y012026D01*
X027118Y012077D01*
X027100Y012128D01*
X027087Y012181D01*
X027077Y012234D01*
X027071Y012289D01*
X027069Y012343D01*
X025069Y012343D02*
X025071Y012397D01*
X025077Y012452D01*
X025087Y012505D01*
X025100Y012558D01*
X025118Y012609D01*
X025139Y012660D01*
X025163Y012708D01*
X025191Y012755D01*
X025223Y012799D01*
X025257Y012841D01*
X025295Y012881D01*
X025335Y012918D01*
X025378Y012951D01*
X025423Y012982D01*
X025470Y013009D01*
X025519Y013033D01*
X025569Y013053D01*
X025621Y013070D01*
X025674Y013082D01*
X025728Y013091D01*
X025782Y013096D01*
X025837Y013097D01*
X025891Y013094D01*
X025945Y013087D01*
X025998Y013076D01*
X026051Y013062D01*
X026102Y013043D01*
X026152Y013021D01*
X026200Y012996D01*
X026246Y012967D01*
X026290Y012935D01*
X026332Y012900D01*
X026370Y012862D01*
X026406Y012821D01*
X026439Y012777D01*
X026469Y012732D01*
X026495Y012684D01*
X026518Y012635D01*
X026538Y012584D01*
X026553Y012532D01*
X026565Y012478D01*
X026573Y012425D01*
X026577Y012370D01*
X026577Y012316D01*
X026573Y012261D01*
X026565Y012208D01*
X026553Y012154D01*
X026538Y012102D01*
X026518Y012051D01*
X026495Y012002D01*
X026469Y011954D01*
X026439Y011909D01*
X026406Y011865D01*
X026370Y011824D01*
X026332Y011786D01*
X026290Y011751D01*
X026246Y011719D01*
X026200Y011690D01*
X026152Y011665D01*
X026102Y011643D01*
X026051Y011624D01*
X025998Y011610D01*
X025945Y011599D01*
X025891Y011592D01*
X025837Y011589D01*
X025782Y011590D01*
X025728Y011595D01*
X025674Y011604D01*
X025621Y011616D01*
X025569Y011633D01*
X025519Y011653D01*
X025470Y011677D01*
X025423Y011704D01*
X025378Y011735D01*
X025335Y011768D01*
X025295Y011805D01*
X025257Y011845D01*
X025223Y011887D01*
X025191Y011931D01*
X025163Y011978D01*
X025139Y012026D01*
X025118Y012077D01*
X025100Y012128D01*
X025087Y012181D01*
X025077Y012234D01*
X025071Y012289D01*
X025069Y012343D01*
X023069Y012343D02*
X023071Y012397D01*
X023077Y012452D01*
X023087Y012505D01*
X023100Y012558D01*
X023118Y012609D01*
X023139Y012660D01*
X023163Y012708D01*
X023191Y012755D01*
X023223Y012799D01*
X023257Y012841D01*
X023295Y012881D01*
X023335Y012918D01*
X023378Y012951D01*
X023423Y012982D01*
X023470Y013009D01*
X023519Y013033D01*
X023569Y013053D01*
X023621Y013070D01*
X023674Y013082D01*
X023728Y013091D01*
X023782Y013096D01*
X023837Y013097D01*
X023891Y013094D01*
X023945Y013087D01*
X023998Y013076D01*
X024051Y013062D01*
X024102Y013043D01*
X024152Y013021D01*
X024200Y012996D01*
X024246Y012967D01*
X024290Y012935D01*
X024332Y012900D01*
X024370Y012862D01*
X024406Y012821D01*
X024439Y012777D01*
X024469Y012732D01*
X024495Y012684D01*
X024518Y012635D01*
X024538Y012584D01*
X024553Y012532D01*
X024565Y012478D01*
X024573Y012425D01*
X024577Y012370D01*
X024577Y012316D01*
X024573Y012261D01*
X024565Y012208D01*
X024553Y012154D01*
X024538Y012102D01*
X024518Y012051D01*
X024495Y012002D01*
X024469Y011954D01*
X024439Y011909D01*
X024406Y011865D01*
X024370Y011824D01*
X024332Y011786D01*
X024290Y011751D01*
X024246Y011719D01*
X024200Y011690D01*
X024152Y011665D01*
X024102Y011643D01*
X024051Y011624D01*
X023998Y011610D01*
X023945Y011599D01*
X023891Y011592D01*
X023837Y011589D01*
X023782Y011590D01*
X023728Y011595D01*
X023674Y011604D01*
X023621Y011616D01*
X023569Y011633D01*
X023519Y011653D01*
X023470Y011677D01*
X023423Y011704D01*
X023378Y011735D01*
X023335Y011768D01*
X023295Y011805D01*
X023257Y011845D01*
X023223Y011887D01*
X023191Y011931D01*
X023163Y011978D01*
X023139Y012026D01*
X023118Y012077D01*
X023100Y012128D01*
X023087Y012181D01*
X023077Y012234D01*
X023071Y012289D01*
X023069Y012343D01*
X021069Y012343D02*
X021071Y012397D01*
X021077Y012452D01*
X021087Y012505D01*
X021100Y012558D01*
X021118Y012609D01*
X021139Y012660D01*
X021163Y012708D01*
X021191Y012755D01*
X021223Y012799D01*
X021257Y012841D01*
X021295Y012881D01*
X021335Y012918D01*
X021378Y012951D01*
X021423Y012982D01*
X021470Y013009D01*
X021519Y013033D01*
X021569Y013053D01*
X021621Y013070D01*
X021674Y013082D01*
X021728Y013091D01*
X021782Y013096D01*
X021837Y013097D01*
X021891Y013094D01*
X021945Y013087D01*
X021998Y013076D01*
X022051Y013062D01*
X022102Y013043D01*
X022152Y013021D01*
X022200Y012996D01*
X022246Y012967D01*
X022290Y012935D01*
X022332Y012900D01*
X022370Y012862D01*
X022406Y012821D01*
X022439Y012777D01*
X022469Y012732D01*
X022495Y012684D01*
X022518Y012635D01*
X022538Y012584D01*
X022553Y012532D01*
X022565Y012478D01*
X022573Y012425D01*
X022577Y012370D01*
X022577Y012316D01*
X022573Y012261D01*
X022565Y012208D01*
X022553Y012154D01*
X022538Y012102D01*
X022518Y012051D01*
X022495Y012002D01*
X022469Y011954D01*
X022439Y011909D01*
X022406Y011865D01*
X022370Y011824D01*
X022332Y011786D01*
X022290Y011751D01*
X022246Y011719D01*
X022200Y011690D01*
X022152Y011665D01*
X022102Y011643D01*
X022051Y011624D01*
X021998Y011610D01*
X021945Y011599D01*
X021891Y011592D01*
X021837Y011589D01*
X021782Y011590D01*
X021728Y011595D01*
X021674Y011604D01*
X021621Y011616D01*
X021569Y011633D01*
X021519Y011653D01*
X021470Y011677D01*
X021423Y011704D01*
X021378Y011735D01*
X021335Y011768D01*
X021295Y011805D01*
X021257Y011845D01*
X021223Y011887D01*
X021191Y011931D01*
X021163Y011978D01*
X021139Y012026D01*
X021118Y012077D01*
X021100Y012128D01*
X021087Y012181D01*
X021077Y012234D01*
X021071Y012289D01*
X021069Y012343D01*
X019069Y012343D02*
X019071Y012397D01*
X019077Y012452D01*
X019087Y012505D01*
X019100Y012558D01*
X019118Y012609D01*
X019139Y012660D01*
X019163Y012708D01*
X019191Y012755D01*
X019223Y012799D01*
X019257Y012841D01*
X019295Y012881D01*
X019335Y012918D01*
X019378Y012951D01*
X019423Y012982D01*
X019470Y013009D01*
X019519Y013033D01*
X019569Y013053D01*
X019621Y013070D01*
X019674Y013082D01*
X019728Y013091D01*
X019782Y013096D01*
X019837Y013097D01*
X019891Y013094D01*
X019945Y013087D01*
X019998Y013076D01*
X020051Y013062D01*
X020102Y013043D01*
X020152Y013021D01*
X020200Y012996D01*
X020246Y012967D01*
X020290Y012935D01*
X020332Y012900D01*
X020370Y012862D01*
X020406Y012821D01*
X020439Y012777D01*
X020469Y012732D01*
X020495Y012684D01*
X020518Y012635D01*
X020538Y012584D01*
X020553Y012532D01*
X020565Y012478D01*
X020573Y012425D01*
X020577Y012370D01*
X020577Y012316D01*
X020573Y012261D01*
X020565Y012208D01*
X020553Y012154D01*
X020538Y012102D01*
X020518Y012051D01*
X020495Y012002D01*
X020469Y011954D01*
X020439Y011909D01*
X020406Y011865D01*
X020370Y011824D01*
X020332Y011786D01*
X020290Y011751D01*
X020246Y011719D01*
X020200Y011690D01*
X020152Y011665D01*
X020102Y011643D01*
X020051Y011624D01*
X019998Y011610D01*
X019945Y011599D01*
X019891Y011592D01*
X019837Y011589D01*
X019782Y011590D01*
X019728Y011595D01*
X019674Y011604D01*
X019621Y011616D01*
X019569Y011633D01*
X019519Y011653D01*
X019470Y011677D01*
X019423Y011704D01*
X019378Y011735D01*
X019335Y011768D01*
X019295Y011805D01*
X019257Y011845D01*
X019223Y011887D01*
X019191Y011931D01*
X019163Y011978D01*
X019139Y012026D01*
X019118Y012077D01*
X019100Y012128D01*
X019087Y012181D01*
X019077Y012234D01*
X019071Y012289D01*
X019069Y012343D01*
X017069Y012343D02*
X017071Y012397D01*
X017077Y012452D01*
X017087Y012505D01*
X017100Y012558D01*
X017118Y012609D01*
X017139Y012660D01*
X017163Y012708D01*
X017191Y012755D01*
X017223Y012799D01*
X017257Y012841D01*
X017295Y012881D01*
X017335Y012918D01*
X017378Y012951D01*
X017423Y012982D01*
X017470Y013009D01*
X017519Y013033D01*
X017569Y013053D01*
X017621Y013070D01*
X017674Y013082D01*
X017728Y013091D01*
X017782Y013096D01*
X017837Y013097D01*
X017891Y013094D01*
X017945Y013087D01*
X017998Y013076D01*
X018051Y013062D01*
X018102Y013043D01*
X018152Y013021D01*
X018200Y012996D01*
X018246Y012967D01*
X018290Y012935D01*
X018332Y012900D01*
X018370Y012862D01*
X018406Y012821D01*
X018439Y012777D01*
X018469Y012732D01*
X018495Y012684D01*
X018518Y012635D01*
X018538Y012584D01*
X018553Y012532D01*
X018565Y012478D01*
X018573Y012425D01*
X018577Y012370D01*
X018577Y012316D01*
X018573Y012261D01*
X018565Y012208D01*
X018553Y012154D01*
X018538Y012102D01*
X018518Y012051D01*
X018495Y012002D01*
X018469Y011954D01*
X018439Y011909D01*
X018406Y011865D01*
X018370Y011824D01*
X018332Y011786D01*
X018290Y011751D01*
X018246Y011719D01*
X018200Y011690D01*
X018152Y011665D01*
X018102Y011643D01*
X018051Y011624D01*
X017998Y011610D01*
X017945Y011599D01*
X017891Y011592D01*
X017837Y011589D01*
X017782Y011590D01*
X017728Y011595D01*
X017674Y011604D01*
X017621Y011616D01*
X017569Y011633D01*
X017519Y011653D01*
X017470Y011677D01*
X017423Y011704D01*
X017378Y011735D01*
X017335Y011768D01*
X017295Y011805D01*
X017257Y011845D01*
X017223Y011887D01*
X017191Y011931D01*
X017163Y011978D01*
X017139Y012026D01*
X017118Y012077D01*
X017100Y012128D01*
X017087Y012181D01*
X017077Y012234D01*
X017071Y012289D01*
X017069Y012343D01*
X012231Y022033D02*
X011872Y022065D01*
X011511Y022081D01*
X011151Y022081D01*
X010790Y022065D01*
X010431Y022033D01*
X010379Y022023D01*
X010328Y022009D01*
X010278Y021991D01*
X010230Y021970D01*
X010183Y021945D01*
X010139Y021917D01*
X010096Y021885D01*
X010056Y021851D01*
X010019Y021813D01*
X009985Y021773D01*
X009953Y021731D01*
X009925Y021686D01*
X009901Y021639D01*
X009880Y021591D01*
X009862Y021541D01*
X009849Y021490D01*
X009839Y021438D01*
X009833Y021386D01*
X009831Y021333D01*
X009833Y021280D01*
X009839Y021228D01*
X009849Y021176D01*
X009862Y021125D01*
X009880Y021075D01*
X009901Y021027D01*
X009925Y020980D01*
X009953Y020935D01*
X009985Y020893D01*
X010019Y020853D01*
X010056Y020815D01*
X010096Y020781D01*
X010139Y020749D01*
X010183Y020721D01*
X010230Y020696D01*
X010278Y020675D01*
X010328Y020657D01*
X010379Y020643D01*
X010431Y020633D01*
X012231Y020633D02*
X012283Y020643D01*
X012334Y020657D01*
X012384Y020675D01*
X012432Y020696D01*
X012479Y020721D01*
X012523Y020749D01*
X012566Y020781D01*
X012606Y020815D01*
X012643Y020853D01*
X012677Y020893D01*
X012709Y020935D01*
X012737Y020980D01*
X012761Y021027D01*
X012782Y021075D01*
X012800Y021125D01*
X012813Y021176D01*
X012823Y021228D01*
X012829Y021280D01*
X012831Y021333D01*
X012829Y021386D01*
X012823Y021438D01*
X012813Y021490D01*
X012800Y021541D01*
X012782Y021591D01*
X012761Y021639D01*
X012737Y021686D01*
X012709Y021731D01*
X012677Y021773D01*
X012643Y021813D01*
X012606Y021851D01*
X012566Y021885D01*
X012523Y021917D01*
X012479Y021945D01*
X012432Y021970D01*
X012384Y021991D01*
X012334Y022009D01*
X012283Y022023D01*
X012231Y022033D01*
X013246Y022027D02*
X013399Y022027D01*
X013399Y021873D01*
X013246Y021873D01*
X013246Y022027D01*
X013581Y021833D02*
X013331Y021583D01*
X013331Y021083D01*
X013581Y020833D01*
X014081Y020833D01*
X014331Y021083D01*
X014581Y020833D01*
X015081Y020833D01*
X015331Y021083D01*
X015581Y020833D01*
X016081Y020833D01*
X016331Y021083D01*
X016581Y020833D01*
X017081Y020833D01*
X017331Y021083D01*
X017581Y020833D01*
X018081Y020833D01*
X018331Y021083D01*
X018331Y021583D01*
X018081Y021833D01*
X017581Y021833D01*
X017331Y021583D01*
X017081Y021833D01*
X016581Y021833D01*
X016331Y021583D01*
X016081Y021833D01*
X015581Y021833D01*
X015331Y021583D01*
X015081Y021833D01*
X014581Y021833D01*
X014331Y021583D01*
X014081Y021833D01*
X013581Y021833D01*
X014823Y022739D02*
X014823Y022857D01*
X030823Y022857D01*
X030823Y022739D01*
X014823Y022739D01*
X014823Y022857D02*
X014823Y023023D01*
X014823Y023102D01*
X030823Y023102D01*
X030823Y022857D01*
X030823Y023102D02*
X030823Y023370D01*
X030823Y023563D01*
X030823Y025137D01*
X030823Y025327D01*
X030823Y025928D01*
X014823Y025928D01*
X014823Y025327D01*
X014823Y025137D01*
X014823Y023563D01*
X014823Y023370D01*
X030823Y023370D01*
X029069Y024343D02*
X029071Y024397D01*
X029077Y024452D01*
X029087Y024505D01*
X029100Y024558D01*
X029118Y024609D01*
X029139Y024660D01*
X029163Y024708D01*
X029191Y024755D01*
X029223Y024799D01*
X029257Y024841D01*
X029295Y024881D01*
X029335Y024918D01*
X029378Y024951D01*
X029423Y024982D01*
X029470Y025009D01*
X029519Y025033D01*
X029569Y025053D01*
X029621Y025070D01*
X029674Y025082D01*
X029728Y025091D01*
X029782Y025096D01*
X029837Y025097D01*
X029891Y025094D01*
X029945Y025087D01*
X029998Y025076D01*
X030051Y025062D01*
X030102Y025043D01*
X030152Y025021D01*
X030200Y024996D01*
X030246Y024967D01*
X030290Y024935D01*
X030332Y024900D01*
X030370Y024862D01*
X030406Y024821D01*
X030439Y024777D01*
X030469Y024732D01*
X030495Y024684D01*
X030518Y024635D01*
X030538Y024584D01*
X030553Y024532D01*
X030565Y024478D01*
X030573Y024425D01*
X030577Y024370D01*
X030577Y024316D01*
X030573Y024261D01*
X030565Y024208D01*
X030553Y024154D01*
X030538Y024102D01*
X030518Y024051D01*
X030495Y024002D01*
X030469Y023954D01*
X030439Y023909D01*
X030406Y023865D01*
X030370Y023824D01*
X030332Y023786D01*
X030290Y023751D01*
X030246Y023719D01*
X030200Y023690D01*
X030152Y023665D01*
X030102Y023643D01*
X030051Y023624D01*
X029998Y023610D01*
X029945Y023599D01*
X029891Y023592D01*
X029837Y023589D01*
X029782Y023590D01*
X029728Y023595D01*
X029674Y023604D01*
X029621Y023616D01*
X029569Y023633D01*
X029519Y023653D01*
X029470Y023677D01*
X029423Y023704D01*
X029378Y023735D01*
X029335Y023768D01*
X029295Y023805D01*
X029257Y023845D01*
X029223Y023887D01*
X029191Y023931D01*
X029163Y023978D01*
X029139Y024026D01*
X029118Y024077D01*
X029100Y024128D01*
X029087Y024181D01*
X029077Y024234D01*
X029071Y024289D01*
X029069Y024343D01*
X027069Y024343D02*
X027071Y024397D01*
X027077Y024452D01*
X027087Y024505D01*
X027100Y024558D01*
X027118Y024609D01*
X027139Y024660D01*
X027163Y024708D01*
X027191Y024755D01*
X027223Y024799D01*
X027257Y024841D01*
X027295Y024881D01*
X027335Y024918D01*
X027378Y024951D01*
X027423Y024982D01*
X027470Y025009D01*
X027519Y025033D01*
X027569Y025053D01*
X027621Y025070D01*
X027674Y025082D01*
X027728Y025091D01*
X027782Y025096D01*
X027837Y025097D01*
X027891Y025094D01*
X027945Y025087D01*
X027998Y025076D01*
X028051Y025062D01*
X028102Y025043D01*
X028152Y025021D01*
X028200Y024996D01*
X028246Y024967D01*
X028290Y024935D01*
X028332Y024900D01*
X028370Y024862D01*
X028406Y024821D01*
X028439Y024777D01*
X028469Y024732D01*
X028495Y024684D01*
X028518Y024635D01*
X028538Y024584D01*
X028553Y024532D01*
X028565Y024478D01*
X028573Y024425D01*
X028577Y024370D01*
X028577Y024316D01*
X028573Y024261D01*
X028565Y024208D01*
X028553Y024154D01*
X028538Y024102D01*
X028518Y024051D01*
X028495Y024002D01*
X028469Y023954D01*
X028439Y023909D01*
X028406Y023865D01*
X028370Y023824D01*
X028332Y023786D01*
X028290Y023751D01*
X028246Y023719D01*
X028200Y023690D01*
X028152Y023665D01*
X028102Y023643D01*
X028051Y023624D01*
X027998Y023610D01*
X027945Y023599D01*
X027891Y023592D01*
X027837Y023589D01*
X027782Y023590D01*
X027728Y023595D01*
X027674Y023604D01*
X027621Y023616D01*
X027569Y023633D01*
X027519Y023653D01*
X027470Y023677D01*
X027423Y023704D01*
X027378Y023735D01*
X027335Y023768D01*
X027295Y023805D01*
X027257Y023845D01*
X027223Y023887D01*
X027191Y023931D01*
X027163Y023978D01*
X027139Y024026D01*
X027118Y024077D01*
X027100Y024128D01*
X027087Y024181D01*
X027077Y024234D01*
X027071Y024289D01*
X027069Y024343D01*
X025069Y024343D02*
X025071Y024397D01*
X025077Y024452D01*
X025087Y024505D01*
X025100Y024558D01*
X025118Y024609D01*
X025139Y024660D01*
X025163Y024708D01*
X025191Y024755D01*
X025223Y024799D01*
X025257Y024841D01*
X025295Y024881D01*
X025335Y024918D01*
X025378Y024951D01*
X025423Y024982D01*
X025470Y025009D01*
X025519Y025033D01*
X025569Y025053D01*
X025621Y025070D01*
X025674Y025082D01*
X025728Y025091D01*
X025782Y025096D01*
X025837Y025097D01*
X025891Y025094D01*
X025945Y025087D01*
X025998Y025076D01*
X026051Y025062D01*
X026102Y025043D01*
X026152Y025021D01*
X026200Y024996D01*
X026246Y024967D01*
X026290Y024935D01*
X026332Y024900D01*
X026370Y024862D01*
X026406Y024821D01*
X026439Y024777D01*
X026469Y024732D01*
X026495Y024684D01*
X026518Y024635D01*
X026538Y024584D01*
X026553Y024532D01*
X026565Y024478D01*
X026573Y024425D01*
X026577Y024370D01*
X026577Y024316D01*
X026573Y024261D01*
X026565Y024208D01*
X026553Y024154D01*
X026538Y024102D01*
X026518Y024051D01*
X026495Y024002D01*
X026469Y023954D01*
X026439Y023909D01*
X026406Y023865D01*
X026370Y023824D01*
X026332Y023786D01*
X026290Y023751D01*
X026246Y023719D01*
X026200Y023690D01*
X026152Y023665D01*
X026102Y023643D01*
X026051Y023624D01*
X025998Y023610D01*
X025945Y023599D01*
X025891Y023592D01*
X025837Y023589D01*
X025782Y023590D01*
X025728Y023595D01*
X025674Y023604D01*
X025621Y023616D01*
X025569Y023633D01*
X025519Y023653D01*
X025470Y023677D01*
X025423Y023704D01*
X025378Y023735D01*
X025335Y023768D01*
X025295Y023805D01*
X025257Y023845D01*
X025223Y023887D01*
X025191Y023931D01*
X025163Y023978D01*
X025139Y024026D01*
X025118Y024077D01*
X025100Y024128D01*
X025087Y024181D01*
X025077Y024234D01*
X025071Y024289D01*
X025069Y024343D01*
X023069Y024343D02*
X023071Y024397D01*
X023077Y024452D01*
X023087Y024505D01*
X023100Y024558D01*
X023118Y024609D01*
X023139Y024660D01*
X023163Y024708D01*
X023191Y024755D01*
X023223Y024799D01*
X023257Y024841D01*
X023295Y024881D01*
X023335Y024918D01*
X023378Y024951D01*
X023423Y024982D01*
X023470Y025009D01*
X023519Y025033D01*
X023569Y025053D01*
X023621Y025070D01*
X023674Y025082D01*
X023728Y025091D01*
X023782Y025096D01*
X023837Y025097D01*
X023891Y025094D01*
X023945Y025087D01*
X023998Y025076D01*
X024051Y025062D01*
X024102Y025043D01*
X024152Y025021D01*
X024200Y024996D01*
X024246Y024967D01*
X024290Y024935D01*
X024332Y024900D01*
X024370Y024862D01*
X024406Y024821D01*
X024439Y024777D01*
X024469Y024732D01*
X024495Y024684D01*
X024518Y024635D01*
X024538Y024584D01*
X024553Y024532D01*
X024565Y024478D01*
X024573Y024425D01*
X024577Y024370D01*
X024577Y024316D01*
X024573Y024261D01*
X024565Y024208D01*
X024553Y024154D01*
X024538Y024102D01*
X024518Y024051D01*
X024495Y024002D01*
X024469Y023954D01*
X024439Y023909D01*
X024406Y023865D01*
X024370Y023824D01*
X024332Y023786D01*
X024290Y023751D01*
X024246Y023719D01*
X024200Y023690D01*
X024152Y023665D01*
X024102Y023643D01*
X024051Y023624D01*
X023998Y023610D01*
X023945Y023599D01*
X023891Y023592D01*
X023837Y023589D01*
X023782Y023590D01*
X023728Y023595D01*
X023674Y023604D01*
X023621Y023616D01*
X023569Y023633D01*
X023519Y023653D01*
X023470Y023677D01*
X023423Y023704D01*
X023378Y023735D01*
X023335Y023768D01*
X023295Y023805D01*
X023257Y023845D01*
X023223Y023887D01*
X023191Y023931D01*
X023163Y023978D01*
X023139Y024026D01*
X023118Y024077D01*
X023100Y024128D01*
X023087Y024181D01*
X023077Y024234D01*
X023071Y024289D01*
X023069Y024343D01*
X021069Y024343D02*
X021071Y024397D01*
X021077Y024452D01*
X021087Y024505D01*
X021100Y024558D01*
X021118Y024609D01*
X021139Y024660D01*
X021163Y024708D01*
X021191Y024755D01*
X021223Y024799D01*
X021257Y024841D01*
X021295Y024881D01*
X021335Y024918D01*
X021378Y024951D01*
X021423Y024982D01*
X021470Y025009D01*
X021519Y025033D01*
X021569Y025053D01*
X021621Y025070D01*
X021674Y025082D01*
X021728Y025091D01*
X021782Y025096D01*
X021837Y025097D01*
X021891Y025094D01*
X021945Y025087D01*
X021998Y025076D01*
X022051Y025062D01*
X022102Y025043D01*
X022152Y025021D01*
X022200Y024996D01*
X022246Y024967D01*
X022290Y024935D01*
X022332Y024900D01*
X022370Y024862D01*
X022406Y024821D01*
X022439Y024777D01*
X022469Y024732D01*
X022495Y024684D01*
X022518Y024635D01*
X022538Y024584D01*
X022553Y024532D01*
X022565Y024478D01*
X022573Y024425D01*
X022577Y024370D01*
X022577Y024316D01*
X022573Y024261D01*
X022565Y024208D01*
X022553Y024154D01*
X022538Y024102D01*
X022518Y024051D01*
X022495Y024002D01*
X022469Y023954D01*
X022439Y023909D01*
X022406Y023865D01*
X022370Y023824D01*
X022332Y023786D01*
X022290Y023751D01*
X022246Y023719D01*
X022200Y023690D01*
X022152Y023665D01*
X022102Y023643D01*
X022051Y023624D01*
X021998Y023610D01*
X021945Y023599D01*
X021891Y023592D01*
X021837Y023589D01*
X021782Y023590D01*
X021728Y023595D01*
X021674Y023604D01*
X021621Y023616D01*
X021569Y023633D01*
X021519Y023653D01*
X021470Y023677D01*
X021423Y023704D01*
X021378Y023735D01*
X021335Y023768D01*
X021295Y023805D01*
X021257Y023845D01*
X021223Y023887D01*
X021191Y023931D01*
X021163Y023978D01*
X021139Y024026D01*
X021118Y024077D01*
X021100Y024128D01*
X021087Y024181D01*
X021077Y024234D01*
X021071Y024289D01*
X021069Y024343D01*
X019069Y024343D02*
X019071Y024397D01*
X019077Y024452D01*
X019087Y024505D01*
X019100Y024558D01*
X019118Y024609D01*
X019139Y024660D01*
X019163Y024708D01*
X019191Y024755D01*
X019223Y024799D01*
X019257Y024841D01*
X019295Y024881D01*
X019335Y024918D01*
X019378Y024951D01*
X019423Y024982D01*
X019470Y025009D01*
X019519Y025033D01*
X019569Y025053D01*
X019621Y025070D01*
X019674Y025082D01*
X019728Y025091D01*
X019782Y025096D01*
X019837Y025097D01*
X019891Y025094D01*
X019945Y025087D01*
X019998Y025076D01*
X020051Y025062D01*
X020102Y025043D01*
X020152Y025021D01*
X020200Y024996D01*
X020246Y024967D01*
X020290Y024935D01*
X020332Y024900D01*
X020370Y024862D01*
X020406Y024821D01*
X020439Y024777D01*
X020469Y024732D01*
X020495Y024684D01*
X020518Y024635D01*
X020538Y024584D01*
X020553Y024532D01*
X020565Y024478D01*
X020573Y024425D01*
X020577Y024370D01*
X020577Y024316D01*
X020573Y024261D01*
X020565Y024208D01*
X020553Y024154D01*
X020538Y024102D01*
X020518Y024051D01*
X020495Y024002D01*
X020469Y023954D01*
X020439Y023909D01*
X020406Y023865D01*
X020370Y023824D01*
X020332Y023786D01*
X020290Y023751D01*
X020246Y023719D01*
X020200Y023690D01*
X020152Y023665D01*
X020102Y023643D01*
X020051Y023624D01*
X019998Y023610D01*
X019945Y023599D01*
X019891Y023592D01*
X019837Y023589D01*
X019782Y023590D01*
X019728Y023595D01*
X019674Y023604D01*
X019621Y023616D01*
X019569Y023633D01*
X019519Y023653D01*
X019470Y023677D01*
X019423Y023704D01*
X019378Y023735D01*
X019335Y023768D01*
X019295Y023805D01*
X019257Y023845D01*
X019223Y023887D01*
X019191Y023931D01*
X019163Y023978D01*
X019139Y024026D01*
X019118Y024077D01*
X019100Y024128D01*
X019087Y024181D01*
X019077Y024234D01*
X019071Y024289D01*
X019069Y024343D01*
X017069Y024343D02*
X017071Y024397D01*
X017077Y024452D01*
X017087Y024505D01*
X017100Y024558D01*
X017118Y024609D01*
X017139Y024660D01*
X017163Y024708D01*
X017191Y024755D01*
X017223Y024799D01*
X017257Y024841D01*
X017295Y024881D01*
X017335Y024918D01*
X017378Y024951D01*
X017423Y024982D01*
X017470Y025009D01*
X017519Y025033D01*
X017569Y025053D01*
X017621Y025070D01*
X017674Y025082D01*
X017728Y025091D01*
X017782Y025096D01*
X017837Y025097D01*
X017891Y025094D01*
X017945Y025087D01*
X017998Y025076D01*
X018051Y025062D01*
X018102Y025043D01*
X018152Y025021D01*
X018200Y024996D01*
X018246Y024967D01*
X018290Y024935D01*
X018332Y024900D01*
X018370Y024862D01*
X018406Y024821D01*
X018439Y024777D01*
X018469Y024732D01*
X018495Y024684D01*
X018518Y024635D01*
X018538Y024584D01*
X018553Y024532D01*
X018565Y024478D01*
X018573Y024425D01*
X018577Y024370D01*
X018577Y024316D01*
X018573Y024261D01*
X018565Y024208D01*
X018553Y024154D01*
X018538Y024102D01*
X018518Y024051D01*
X018495Y024002D01*
X018469Y023954D01*
X018439Y023909D01*
X018406Y023865D01*
X018370Y023824D01*
X018332Y023786D01*
X018290Y023751D01*
X018246Y023719D01*
X018200Y023690D01*
X018152Y023665D01*
X018102Y023643D01*
X018051Y023624D01*
X017998Y023610D01*
X017945Y023599D01*
X017891Y023592D01*
X017837Y023589D01*
X017782Y023590D01*
X017728Y023595D01*
X017674Y023604D01*
X017621Y023616D01*
X017569Y023633D01*
X017519Y023653D01*
X017470Y023677D01*
X017423Y023704D01*
X017378Y023735D01*
X017335Y023768D01*
X017295Y023805D01*
X017257Y023845D01*
X017223Y023887D01*
X017191Y023931D01*
X017163Y023978D01*
X017139Y024026D01*
X017118Y024077D01*
X017100Y024128D01*
X017087Y024181D01*
X017077Y024234D01*
X017071Y024289D01*
X017069Y024343D01*
X015069Y024343D02*
X015071Y024397D01*
X015077Y024452D01*
X015087Y024505D01*
X015100Y024558D01*
X015118Y024609D01*
X015139Y024660D01*
X015163Y024708D01*
X015191Y024755D01*
X015223Y024799D01*
X015257Y024841D01*
X015295Y024881D01*
X015335Y024918D01*
X015378Y024951D01*
X015423Y024982D01*
X015470Y025009D01*
X015519Y025033D01*
X015569Y025053D01*
X015621Y025070D01*
X015674Y025082D01*
X015728Y025091D01*
X015782Y025096D01*
X015837Y025097D01*
X015891Y025094D01*
X015945Y025087D01*
X015998Y025076D01*
X016051Y025062D01*
X016102Y025043D01*
X016152Y025021D01*
X016200Y024996D01*
X016246Y024967D01*
X016290Y024935D01*
X016332Y024900D01*
X016370Y024862D01*
X016406Y024821D01*
X016439Y024777D01*
X016469Y024732D01*
X016495Y024684D01*
X016518Y024635D01*
X016538Y024584D01*
X016553Y024532D01*
X016565Y024478D01*
X016573Y024425D01*
X016577Y024370D01*
X016577Y024316D01*
X016573Y024261D01*
X016565Y024208D01*
X016553Y024154D01*
X016538Y024102D01*
X016518Y024051D01*
X016495Y024002D01*
X016469Y023954D01*
X016439Y023909D01*
X016406Y023865D01*
X016370Y023824D01*
X016332Y023786D01*
X016290Y023751D01*
X016246Y023719D01*
X016200Y023690D01*
X016152Y023665D01*
X016102Y023643D01*
X016051Y023624D01*
X015998Y023610D01*
X015945Y023599D01*
X015891Y023592D01*
X015837Y023589D01*
X015782Y023590D01*
X015728Y023595D01*
X015674Y023604D01*
X015621Y023616D01*
X015569Y023633D01*
X015519Y023653D01*
X015470Y023677D01*
X015423Y023704D01*
X015378Y023735D01*
X015335Y023768D01*
X015295Y023805D01*
X015257Y023845D01*
X015223Y023887D01*
X015191Y023931D01*
X015163Y023978D01*
X015139Y024026D01*
X015118Y024077D01*
X015100Y024128D01*
X015087Y024181D01*
X015077Y024234D01*
X015071Y024289D01*
X015069Y024343D01*
X014823Y023370D02*
X014823Y023186D01*
X014823Y023102D01*
X014823Y023023D02*
X014772Y023023D01*
X014702Y022964D01*
X014598Y022964D01*
X014598Y023246D01*
X014702Y023246D01*
X014772Y023186D01*
X014823Y023186D01*
X014823Y025327D02*
X030823Y025327D01*
X029281Y021883D02*
X028881Y021883D01*
X028597Y021333D02*
X028599Y021395D01*
X028605Y021458D01*
X028615Y021519D01*
X028629Y021580D01*
X028646Y021640D01*
X028667Y021699D01*
X028693Y021756D01*
X028721Y021811D01*
X028753Y021865D01*
X028789Y021916D01*
X028827Y021966D01*
X028869Y022012D01*
X028913Y022056D01*
X028961Y022097D01*
X029010Y022135D01*
X029062Y022169D01*
X029116Y022200D01*
X029172Y022228D01*
X029230Y022252D01*
X029289Y022273D01*
X029349Y022289D01*
X029410Y022302D01*
X029472Y022311D01*
X029534Y022316D01*
X029597Y022317D01*
X029659Y022314D01*
X029721Y022307D01*
X029783Y022296D01*
X029843Y022281D01*
X029903Y022263D01*
X029961Y022241D01*
X030018Y022215D01*
X030073Y022185D01*
X030126Y022152D01*
X030177Y022116D01*
X030225Y022077D01*
X030271Y022034D01*
X030314Y021989D01*
X030354Y021941D01*
X030391Y021891D01*
X030425Y021838D01*
X030456Y021784D01*
X030482Y021728D01*
X030506Y021670D01*
X030525Y021610D01*
X030541Y021550D01*
X030553Y021488D01*
X030561Y021427D01*
X030565Y021364D01*
X030565Y021302D01*
X030561Y021239D01*
X030553Y021178D01*
X030541Y021116D01*
X030525Y021056D01*
X030506Y020996D01*
X030482Y020938D01*
X030456Y020882D01*
X030425Y020828D01*
X030391Y020775D01*
X030354Y020725D01*
X030314Y020677D01*
X030271Y020632D01*
X030225Y020589D01*
X030177Y020550D01*
X030126Y020514D01*
X030073Y020481D01*
X030018Y020451D01*
X029961Y020425D01*
X029903Y020403D01*
X029843Y020385D01*
X029783Y020370D01*
X029721Y020359D01*
X029659Y020352D01*
X029597Y020349D01*
X029534Y020350D01*
X029472Y020355D01*
X029410Y020364D01*
X029349Y020377D01*
X029289Y020393D01*
X029230Y020414D01*
X029172Y020438D01*
X029116Y020466D01*
X029062Y020497D01*
X029010Y020531D01*
X028961Y020569D01*
X028913Y020610D01*
X028869Y020654D01*
X028827Y020700D01*
X028789Y020750D01*
X028753Y020801D01*
X028721Y020855D01*
X028693Y020910D01*
X028667Y020967D01*
X028646Y021026D01*
X028629Y021086D01*
X028615Y021147D01*
X028605Y021208D01*
X028599Y021271D01*
X028597Y021333D01*
X033831Y019833D02*
X033831Y019233D01*
X029281Y015633D02*
X028881Y015633D01*
X028597Y015083D02*
X028599Y015145D01*
X028605Y015208D01*
X028615Y015269D01*
X028629Y015330D01*
X028646Y015390D01*
X028667Y015449D01*
X028693Y015506D01*
X028721Y015561D01*
X028753Y015615D01*
X028789Y015666D01*
X028827Y015716D01*
X028869Y015762D01*
X028913Y015806D01*
X028961Y015847D01*
X029010Y015885D01*
X029062Y015919D01*
X029116Y015950D01*
X029172Y015978D01*
X029230Y016002D01*
X029289Y016023D01*
X029349Y016039D01*
X029410Y016052D01*
X029472Y016061D01*
X029534Y016066D01*
X029597Y016067D01*
X029659Y016064D01*
X029721Y016057D01*
X029783Y016046D01*
X029843Y016031D01*
X029903Y016013D01*
X029961Y015991D01*
X030018Y015965D01*
X030073Y015935D01*
X030126Y015902D01*
X030177Y015866D01*
X030225Y015827D01*
X030271Y015784D01*
X030314Y015739D01*
X030354Y015691D01*
X030391Y015641D01*
X030425Y015588D01*
X030456Y015534D01*
X030482Y015478D01*
X030506Y015420D01*
X030525Y015360D01*
X030541Y015300D01*
X030553Y015238D01*
X030561Y015177D01*
X030565Y015114D01*
X030565Y015052D01*
X030561Y014989D01*
X030553Y014928D01*
X030541Y014866D01*
X030525Y014806D01*
X030506Y014746D01*
X030482Y014688D01*
X030456Y014632D01*
X030425Y014578D01*
X030391Y014525D01*
X030354Y014475D01*
X030314Y014427D01*
X030271Y014382D01*
X030225Y014339D01*
X030177Y014300D01*
X030126Y014264D01*
X030073Y014231D01*
X030018Y014201D01*
X029961Y014175D01*
X029903Y014153D01*
X029843Y014135D01*
X029783Y014120D01*
X029721Y014109D01*
X029659Y014102D01*
X029597Y014099D01*
X029534Y014100D01*
X029472Y014105D01*
X029410Y014114D01*
X029349Y014127D01*
X029289Y014143D01*
X029230Y014164D01*
X029172Y014188D01*
X029116Y014216D01*
X029062Y014247D01*
X029010Y014281D01*
X028961Y014319D01*
X028913Y014360D01*
X028869Y014404D01*
X028827Y014450D01*
X028789Y014500D01*
X028753Y014551D01*
X028721Y014605D01*
X028693Y014660D01*
X028667Y014717D01*
X028646Y014776D01*
X028629Y014836D01*
X028615Y014897D01*
X028605Y014958D01*
X028599Y015021D01*
X028597Y015083D01*
X020847Y021333D02*
X020849Y021395D01*
X020855Y021458D01*
X020865Y021519D01*
X020879Y021580D01*
X020896Y021640D01*
X020917Y021699D01*
X020943Y021756D01*
X020971Y021811D01*
X021003Y021865D01*
X021039Y021916D01*
X021077Y021966D01*
X021119Y022012D01*
X021163Y022056D01*
X021211Y022097D01*
X021260Y022135D01*
X021312Y022169D01*
X021366Y022200D01*
X021422Y022228D01*
X021480Y022252D01*
X021539Y022273D01*
X021599Y022289D01*
X021660Y022302D01*
X021722Y022311D01*
X021784Y022316D01*
X021847Y022317D01*
X021909Y022314D01*
X021971Y022307D01*
X022033Y022296D01*
X022093Y022281D01*
X022153Y022263D01*
X022211Y022241D01*
X022268Y022215D01*
X022323Y022185D01*
X022376Y022152D01*
X022427Y022116D01*
X022475Y022077D01*
X022521Y022034D01*
X022564Y021989D01*
X022604Y021941D01*
X022641Y021891D01*
X022675Y021838D01*
X022706Y021784D01*
X022732Y021728D01*
X022756Y021670D01*
X022775Y021610D01*
X022791Y021550D01*
X022803Y021488D01*
X022811Y021427D01*
X022815Y021364D01*
X022815Y021302D01*
X022811Y021239D01*
X022803Y021178D01*
X022791Y021116D01*
X022775Y021056D01*
X022756Y020996D01*
X022732Y020938D01*
X022706Y020882D01*
X022675Y020828D01*
X022641Y020775D01*
X022604Y020725D01*
X022564Y020677D01*
X022521Y020632D01*
X022475Y020589D01*
X022427Y020550D01*
X022376Y020514D01*
X022323Y020481D01*
X022268Y020451D01*
X022211Y020425D01*
X022153Y020403D01*
X022093Y020385D01*
X022033Y020370D01*
X021971Y020359D01*
X021909Y020352D01*
X021847Y020349D01*
X021784Y020350D01*
X021722Y020355D01*
X021660Y020364D01*
X021599Y020377D01*
X021539Y020393D01*
X021480Y020414D01*
X021422Y020438D01*
X021366Y020466D01*
X021312Y020497D01*
X021260Y020531D01*
X021211Y020569D01*
X021163Y020610D01*
X021119Y020654D01*
X021077Y020700D01*
X021039Y020750D01*
X021003Y020801D01*
X020971Y020855D01*
X020943Y020910D01*
X020917Y020967D01*
X020896Y021026D01*
X020879Y021086D01*
X020865Y021147D01*
X020855Y021208D01*
X020849Y021271D01*
X020847Y021333D01*
X021131Y021883D02*
X021531Y021883D01*
X012231Y020633D02*
X011872Y020601D01*
X011511Y020585D01*
X011151Y020585D01*
X010790Y020601D01*
X010431Y020633D01*
X042087Y020342D02*
X042089Y020396D01*
X042095Y020451D01*
X042105Y020504D01*
X042118Y020557D01*
X042136Y020608D01*
X042157Y020659D01*
X042181Y020707D01*
X042209Y020754D01*
X042241Y020798D01*
X042275Y020840D01*
X042313Y020880D01*
X042353Y020917D01*
X042396Y020950D01*
X042441Y020981D01*
X042488Y021008D01*
X042537Y021032D01*
X042587Y021052D01*
X042639Y021069D01*
X042692Y021081D01*
X042746Y021090D01*
X042800Y021095D01*
X042855Y021096D01*
X042909Y021093D01*
X042963Y021086D01*
X043016Y021075D01*
X043069Y021061D01*
X043120Y021042D01*
X043170Y021020D01*
X043218Y020995D01*
X043264Y020966D01*
X043308Y020934D01*
X043350Y020899D01*
X043388Y020861D01*
X043424Y020820D01*
X043457Y020776D01*
X043487Y020731D01*
X043513Y020683D01*
X043536Y020634D01*
X043556Y020583D01*
X043571Y020531D01*
X043583Y020477D01*
X043591Y020424D01*
X043595Y020369D01*
X043595Y020315D01*
X043591Y020260D01*
X043583Y020207D01*
X043571Y020153D01*
X043556Y020101D01*
X043536Y020050D01*
X043513Y020001D01*
X043487Y019953D01*
X043457Y019908D01*
X043424Y019864D01*
X043388Y019823D01*
X043350Y019785D01*
X043308Y019750D01*
X043264Y019718D01*
X043218Y019689D01*
X043170Y019664D01*
X043120Y019642D01*
X043069Y019623D01*
X043016Y019609D01*
X042963Y019598D01*
X042909Y019591D01*
X042855Y019588D01*
X042800Y019589D01*
X042746Y019594D01*
X042692Y019603D01*
X042639Y019615D01*
X042587Y019632D01*
X042537Y019652D01*
X042488Y019676D01*
X042441Y019703D01*
X042396Y019734D01*
X042353Y019767D01*
X042313Y019804D01*
X042275Y019844D01*
X042241Y019886D01*
X042209Y019930D01*
X042181Y019977D01*
X042157Y020025D01*
X042136Y020076D01*
X042118Y020127D01*
X042105Y020180D01*
X042095Y020233D01*
X042089Y020288D01*
X042087Y020342D01*
X042087Y018342D02*
X042089Y018396D01*
X042095Y018451D01*
X042105Y018504D01*
X042118Y018557D01*
X042136Y018608D01*
X042157Y018659D01*
X042181Y018707D01*
X042209Y018754D01*
X042241Y018798D01*
X042275Y018840D01*
X042313Y018880D01*
X042353Y018917D01*
X042396Y018950D01*
X042441Y018981D01*
X042488Y019008D01*
X042537Y019032D01*
X042587Y019052D01*
X042639Y019069D01*
X042692Y019081D01*
X042746Y019090D01*
X042800Y019095D01*
X042855Y019096D01*
X042909Y019093D01*
X042963Y019086D01*
X043016Y019075D01*
X043069Y019061D01*
X043120Y019042D01*
X043170Y019020D01*
X043218Y018995D01*
X043264Y018966D01*
X043308Y018934D01*
X043350Y018899D01*
X043388Y018861D01*
X043424Y018820D01*
X043457Y018776D01*
X043487Y018731D01*
X043513Y018683D01*
X043536Y018634D01*
X043556Y018583D01*
X043571Y018531D01*
X043583Y018477D01*
X043591Y018424D01*
X043595Y018369D01*
X043595Y018315D01*
X043591Y018260D01*
X043583Y018207D01*
X043571Y018153D01*
X043556Y018101D01*
X043536Y018050D01*
X043513Y018001D01*
X043487Y017953D01*
X043457Y017908D01*
X043424Y017864D01*
X043388Y017823D01*
X043350Y017785D01*
X043308Y017750D01*
X043264Y017718D01*
X043218Y017689D01*
X043170Y017664D01*
X043120Y017642D01*
X043069Y017623D01*
X043016Y017609D01*
X042963Y017598D01*
X042909Y017591D01*
X042855Y017588D01*
X042800Y017589D01*
X042746Y017594D01*
X042692Y017603D01*
X042639Y017615D01*
X042587Y017632D01*
X042537Y017652D01*
X042488Y017676D01*
X042441Y017703D01*
X042396Y017734D01*
X042353Y017767D01*
X042313Y017804D01*
X042275Y017844D01*
X042241Y017886D01*
X042209Y017930D01*
X042181Y017977D01*
X042157Y018025D01*
X042136Y018076D01*
X042118Y018127D01*
X042105Y018180D01*
X042095Y018233D01*
X042089Y018288D01*
X042087Y018342D01*
D14*
X037831Y017833D02*
X037831Y016833D01*
X033831Y016833D01*
X033831Y017833D01*
X033831Y018433D01*
X033831Y017833D02*
X037831Y017833D01*
X037831Y019833D01*
X033831Y019833D01*
X033831Y020833D01*
X037831Y020833D01*
X037831Y019833D01*
X038131Y021133D02*
X036531Y021133D01*
X036514Y021135D01*
X036497Y021139D01*
X036481Y021146D01*
X036467Y021156D01*
X036454Y021169D01*
X036444Y021183D01*
X036437Y021199D01*
X036433Y021216D01*
X036431Y021233D01*
X036431Y022933D01*
X036433Y022950D01*
X036437Y022967D01*
X036444Y022983D01*
X036454Y022997D01*
X036467Y023010D01*
X036481Y023020D01*
X036497Y023027D01*
X036514Y023031D01*
X036531Y023033D01*
X038131Y023033D01*
X038148Y023031D01*
X038165Y023027D01*
X038181Y023020D01*
X038195Y023010D01*
X038208Y022997D01*
X038218Y022983D01*
X038225Y022967D01*
X038229Y022950D01*
X038231Y022933D01*
X038231Y021233D01*
X038229Y021216D01*
X038225Y021199D01*
X038218Y021183D01*
X038208Y021169D01*
X038195Y021156D01*
X038181Y021146D01*
X038165Y021139D01*
X038148Y021135D01*
X038131Y021133D01*
X037331Y021933D02*
X037331Y021983D01*
X037331Y022183D02*
X037331Y022233D01*
X036881Y023383D02*
X037231Y023883D01*
X037231Y024283D01*
X036881Y024783D01*
X034781Y024783D01*
X034431Y024283D01*
X034431Y023883D01*
X034781Y023383D01*
X036881Y023383D01*
X034731Y022933D02*
X034731Y021233D01*
X034729Y021216D01*
X034725Y021199D01*
X034718Y021183D01*
X034708Y021169D01*
X034695Y021156D01*
X034681Y021146D01*
X034665Y021139D01*
X034648Y021135D01*
X034631Y021133D01*
X033031Y021133D01*
X033014Y021135D01*
X032997Y021139D01*
X032981Y021146D01*
X032967Y021156D01*
X032954Y021169D01*
X032944Y021183D01*
X032937Y021199D01*
X032933Y021216D01*
X032931Y021233D01*
X032931Y022933D01*
X032933Y022950D01*
X032937Y022967D01*
X032944Y022983D01*
X032954Y022997D01*
X032967Y023010D01*
X032981Y023020D01*
X032997Y023027D01*
X033014Y023031D01*
X033031Y023033D01*
X034631Y023033D01*
X034648Y023031D01*
X034665Y023027D01*
X034681Y023020D01*
X034695Y023010D01*
X034708Y022997D01*
X034718Y022983D01*
X034725Y022967D01*
X034729Y022950D01*
X034731Y022933D01*
X033831Y022233D02*
X033831Y022183D01*
X033831Y021983D02*
X033831Y021933D01*
X030531Y020133D02*
X030531Y018533D01*
X030529Y018516D01*
X030525Y018499D01*
X030518Y018483D01*
X030508Y018469D01*
X030495Y018456D01*
X030481Y018446D01*
X030465Y018439D01*
X030448Y018435D01*
X030431Y018433D01*
X028731Y018433D01*
X028714Y018435D01*
X028697Y018439D01*
X028681Y018446D01*
X028667Y018456D01*
X028654Y018469D01*
X028644Y018483D01*
X028637Y018499D01*
X028633Y018516D01*
X028631Y018533D01*
X028631Y020133D01*
X028633Y020150D01*
X028637Y020167D01*
X028644Y020183D01*
X028654Y020197D01*
X028667Y020210D01*
X028681Y020220D01*
X028697Y020227D01*
X028714Y020231D01*
X028731Y020233D01*
X030431Y020233D01*
X030448Y020231D01*
X030465Y020227D01*
X030481Y020220D01*
X030495Y020210D01*
X030508Y020197D01*
X030518Y020183D01*
X030525Y020167D01*
X030529Y020150D01*
X030531Y020133D01*
X029731Y019333D02*
X029681Y019333D01*
X029481Y019333D02*
X029431Y019333D01*
X029931Y018379D02*
X029931Y018221D01*
X030481Y018158D02*
X030481Y016509D01*
X029931Y016446D02*
X029931Y016288D01*
X029931Y017221D02*
X029931Y017446D01*
X030481Y018159D02*
X030430Y018196D01*
X030377Y018231D01*
X030321Y018263D01*
X030264Y018291D01*
X030205Y018315D01*
X030145Y018336D01*
X030084Y018353D01*
X030022Y018367D01*
X029959Y018376D01*
X029896Y018382D01*
X029832Y018384D01*
X029768Y018382D01*
X029705Y018376D01*
X029642Y018367D01*
X029580Y018354D01*
X029519Y018336D01*
X029459Y018316D01*
X029400Y018291D01*
X029343Y018264D01*
X029287Y018232D01*
X029234Y018198D01*
X029183Y018160D01*
X029134Y018119D01*
X029088Y018075D01*
X029044Y018029D01*
X029003Y017980D01*
X028966Y017929D01*
X028931Y017875D01*
X028900Y017820D01*
X028872Y017763D01*
X028848Y017704D01*
X028828Y017644D01*
X028828Y017023D02*
X028848Y016963D01*
X028872Y016904D01*
X028900Y016847D01*
X028931Y016792D01*
X028966Y016738D01*
X029003Y016687D01*
X029044Y016638D01*
X029088Y016592D01*
X029134Y016548D01*
X029183Y016507D01*
X029234Y016469D01*
X029287Y016435D01*
X029343Y016403D01*
X029400Y016376D01*
X029459Y016351D01*
X029519Y016331D01*
X029580Y016313D01*
X029642Y016300D01*
X029705Y016291D01*
X029768Y016285D01*
X029832Y016283D01*
X029896Y016285D01*
X029959Y016291D01*
X030022Y016300D01*
X030084Y016314D01*
X030145Y016331D01*
X030205Y016352D01*
X030264Y016376D01*
X030321Y016404D01*
X030377Y016436D01*
X030430Y016471D01*
X030481Y016508D01*
X027881Y015933D02*
X027531Y015933D01*
X027531Y015333D01*
X027881Y015333D01*
X027881Y014583D01*
X023781Y014583D01*
X023781Y015333D01*
X024131Y015333D01*
X024131Y015933D01*
X023781Y015933D01*
X023781Y020833D01*
X027881Y020833D01*
X027881Y015933D01*
X025121Y015933D02*
X025123Y015986D01*
X025129Y016039D01*
X025139Y016091D01*
X025153Y016142D01*
X025170Y016192D01*
X025191Y016241D01*
X025216Y016288D01*
X025244Y016333D01*
X025276Y016376D01*
X025311Y016416D01*
X025348Y016453D01*
X025388Y016488D01*
X025431Y016520D01*
X025476Y016548D01*
X025523Y016573D01*
X025572Y016594D01*
X025622Y016611D01*
X025673Y016625D01*
X025725Y016635D01*
X025778Y016641D01*
X025831Y016643D01*
X025884Y016641D01*
X025937Y016635D01*
X025989Y016625D01*
X026040Y016611D01*
X026090Y016594D01*
X026139Y016573D01*
X026186Y016548D01*
X026231Y016520D01*
X026274Y016488D01*
X026314Y016453D01*
X026351Y016416D01*
X026386Y016376D01*
X026418Y016333D01*
X026446Y016288D01*
X026471Y016241D01*
X026492Y016192D01*
X026509Y016142D01*
X026523Y016091D01*
X026533Y016039D01*
X026539Y015986D01*
X026541Y015933D01*
X026539Y015880D01*
X026533Y015827D01*
X026523Y015775D01*
X026509Y015724D01*
X026492Y015674D01*
X026471Y015625D01*
X026446Y015578D01*
X026418Y015533D01*
X026386Y015490D01*
X026351Y015450D01*
X026314Y015413D01*
X026274Y015378D01*
X026231Y015346D01*
X026186Y015318D01*
X026139Y015293D01*
X026090Y015272D01*
X026040Y015255D01*
X025989Y015241D01*
X025937Y015231D01*
X025884Y015225D01*
X025831Y015223D01*
X025778Y015225D01*
X025725Y015231D01*
X025673Y015241D01*
X025622Y015255D01*
X025572Y015272D01*
X025523Y015293D01*
X025476Y015318D01*
X025431Y015346D01*
X025388Y015378D01*
X025348Y015413D01*
X025311Y015450D01*
X025276Y015490D01*
X025244Y015533D01*
X025216Y015578D01*
X025191Y015625D01*
X025170Y015674D01*
X025153Y015724D01*
X025139Y015775D01*
X025129Y015827D01*
X025123Y015880D01*
X025121Y015933D01*
X022781Y015533D02*
X022781Y017133D01*
X022779Y017150D01*
X022775Y017167D01*
X022768Y017183D01*
X022758Y017197D01*
X022745Y017210D01*
X022731Y017220D01*
X022715Y017227D01*
X022698Y017231D01*
X022681Y017233D01*
X020981Y017233D01*
X020964Y017231D01*
X020947Y017227D01*
X020931Y017220D01*
X020917Y017210D01*
X020904Y017197D01*
X020894Y017183D01*
X020887Y017167D01*
X020883Y017150D01*
X020881Y017133D01*
X020881Y015533D01*
X020883Y015516D01*
X020887Y015499D01*
X020894Y015483D01*
X020904Y015469D01*
X020917Y015456D01*
X020931Y015446D01*
X020947Y015439D01*
X020964Y015435D01*
X020981Y015433D01*
X022681Y015433D01*
X022698Y015435D01*
X022715Y015439D01*
X022731Y015446D01*
X022745Y015456D01*
X022758Y015469D01*
X022768Y015483D01*
X022775Y015499D01*
X022779Y015516D01*
X022781Y015533D01*
X021981Y016333D02*
X021931Y016333D01*
X021731Y016333D02*
X021681Y016333D01*
X020331Y017033D02*
X020331Y018633D01*
X011331Y018633D01*
X011331Y018083D01*
X011361Y018081D01*
X011391Y018076D01*
X011420Y018067D01*
X011447Y018054D01*
X011473Y018039D01*
X011497Y018020D01*
X011518Y017999D01*
X011537Y017975D01*
X011552Y017949D01*
X011565Y017922D01*
X011574Y017893D01*
X011579Y017863D01*
X011581Y017833D01*
X011579Y017803D01*
X011574Y017773D01*
X011565Y017744D01*
X011552Y017717D01*
X011537Y017691D01*
X011518Y017667D01*
X011497Y017646D01*
X011473Y017627D01*
X011447Y017612D01*
X011420Y017599D01*
X011391Y017590D01*
X011361Y017585D01*
X011331Y017583D01*
X011331Y017033D01*
X020331Y017033D01*
X020981Y017933D02*
X022681Y017933D01*
X022698Y017935D01*
X022715Y017939D01*
X022731Y017946D01*
X022745Y017956D01*
X022758Y017969D01*
X022768Y017983D01*
X022775Y017999D01*
X022779Y018016D01*
X022781Y018033D01*
X022781Y019633D01*
X022779Y019650D01*
X022775Y019667D01*
X022768Y019683D01*
X022758Y019697D01*
X022745Y019710D01*
X022731Y019720D01*
X022715Y019727D01*
X022698Y019731D01*
X022681Y019733D01*
X020981Y019733D01*
X020964Y019731D01*
X020947Y019727D01*
X020931Y019720D01*
X020917Y019710D01*
X020904Y019697D01*
X020894Y019683D01*
X020887Y019667D01*
X020883Y019650D01*
X020881Y019633D01*
X020881Y018033D01*
X020883Y018016D01*
X020887Y017999D01*
X020894Y017983D01*
X020904Y017969D01*
X020917Y017956D01*
X020931Y017946D01*
X020947Y017939D01*
X020964Y017935D01*
X020981Y017933D01*
X021681Y018833D02*
X021731Y018833D01*
X021931Y018833D02*
X021981Y018833D01*
X031486Y025238D02*
X031486Y025879D01*
X031699Y025665D01*
X031913Y025879D01*
X031913Y025238D01*
X031913Y025879D01*
X031699Y025665D01*
X031486Y025879D01*
X031486Y025238D01*
X032131Y025345D02*
X032131Y025665D01*
X032131Y025345D01*
X032237Y025238D01*
X032558Y025238D01*
X032558Y025665D01*
X032558Y025238D01*
X032237Y025238D01*
X032131Y025345D01*
X032775Y025238D02*
X032989Y025238D01*
X032775Y025238D01*
X032882Y025238D02*
X032882Y025879D01*
X032775Y025879D01*
X032882Y025879D01*
X032882Y025238D01*
X033312Y025345D02*
X033418Y025238D01*
X033312Y025345D01*
X033312Y025772D01*
X033312Y025345D01*
X033205Y025665D02*
X033418Y025665D01*
X033205Y025665D01*
X033634Y025665D02*
X033741Y025665D01*
X033741Y025238D01*
X033741Y025665D01*
X033634Y025665D01*
X033741Y025879D02*
X033741Y025986D01*
X033741Y025879D01*
X034064Y025879D02*
X034278Y025879D01*
X034064Y025879D01*
X034171Y025879D02*
X034171Y025238D01*
X034171Y025879D01*
X034494Y025772D02*
X034494Y025345D01*
X034601Y025238D01*
X034814Y025238D01*
X034921Y025345D01*
X034921Y025772D01*
X034814Y025879D01*
X034601Y025879D01*
X034494Y025772D01*
X034494Y025345D01*
X034601Y025238D01*
X034814Y025238D01*
X034921Y025345D01*
X034921Y025772D01*
X034814Y025879D01*
X034601Y025879D01*
X034494Y025772D01*
X034278Y025238D02*
X034064Y025238D01*
X034278Y025238D01*
X033848Y025238D02*
X033634Y025238D01*
X033848Y025238D01*
X035138Y025132D02*
X035565Y025132D01*
X035138Y025132D01*
X035783Y025238D02*
X036210Y025238D01*
X035783Y025238D01*
X035996Y025238D02*
X035996Y025879D01*
X035783Y025665D01*
X035996Y025879D01*
X035996Y025238D01*
X036428Y025345D02*
X036855Y025772D01*
X036855Y025345D01*
X036748Y025238D01*
X036534Y025238D01*
X036428Y025345D01*
X036428Y025772D01*
X036534Y025879D01*
X036748Y025879D01*
X036855Y025772D01*
X036428Y025345D01*
X036534Y025238D01*
X036748Y025238D01*
X036855Y025345D01*
X036855Y025772D01*
X036748Y025879D01*
X036534Y025879D01*
X036428Y025772D01*
X036428Y025345D01*
X037717Y025452D02*
X037717Y025879D01*
X037717Y025452D01*
X037930Y025238D01*
X038144Y025452D01*
X038144Y025879D01*
X038144Y025452D01*
X037930Y025238D01*
X037717Y025452D01*
X038361Y025665D02*
X038575Y025879D01*
X038575Y025238D01*
X038575Y025879D01*
X038361Y025665D01*
X038361Y025238D02*
X038788Y025238D01*
X038361Y025238D01*
X039006Y025238D02*
X039112Y025238D01*
X039112Y025345D01*
X039006Y025345D01*
X039006Y025238D01*
X039112Y025238D01*
X039112Y025345D01*
X039006Y025345D01*
X039006Y025238D01*
X039328Y025345D02*
X039755Y025772D01*
X039755Y025345D01*
X039648Y025238D01*
X039435Y025238D01*
X039328Y025345D01*
X039328Y025772D01*
X039435Y025879D01*
X039648Y025879D01*
X039755Y025772D01*
X039328Y025345D01*
X039435Y025238D01*
X039648Y025238D01*
X039755Y025345D01*
X039755Y025772D01*
X039648Y025879D01*
X039435Y025879D01*
X039328Y025772D01*
X039328Y025345D01*
X041831Y022733D02*
X041931Y022833D01*
X041831Y022733D02*
X041831Y021933D01*
X041931Y021833D01*
X042731Y021833D02*
X042831Y021933D01*
X042931Y021833D01*
X043731Y021833D02*
X043831Y021933D01*
X043831Y022733D01*
X043731Y022833D01*
X042931Y022833D02*
X042831Y022733D01*
X042731Y022833D01*
X033831Y019233D02*
X033870Y019231D01*
X033909Y019225D01*
X033947Y019216D01*
X033984Y019203D01*
X034020Y019186D01*
X034053Y019166D01*
X034085Y019142D01*
X034114Y019116D01*
X034140Y019087D01*
X034164Y019055D01*
X034184Y019022D01*
X034201Y018986D01*
X034214Y018949D01*
X034223Y018911D01*
X034229Y018872D01*
X034231Y018833D01*
X034229Y018794D01*
X034223Y018755D01*
X034214Y018717D01*
X034201Y018680D01*
X034184Y018644D01*
X034164Y018611D01*
X034140Y018579D01*
X034114Y018550D01*
X034085Y018524D01*
X034053Y018500D01*
X034020Y018480D01*
X033984Y018463D01*
X033947Y018450D01*
X033909Y018441D01*
X033870Y018435D01*
X033831Y018433D01*
X031597Y001004D02*
X031597Y000363D01*
X031170Y001004D01*
X031170Y000363D01*
X030952Y000363D02*
X030525Y000363D01*
X030525Y001004D01*
X030952Y001004D01*
X030739Y000684D02*
X030525Y000684D01*
X030308Y001004D02*
X029881Y001004D01*
X029881Y000363D01*
X030308Y000363D01*
X030094Y000684D02*
X029881Y000684D01*
X029663Y000684D02*
X029556Y000577D01*
X029236Y000577D01*
X029236Y000363D02*
X029236Y001004D01*
X029556Y001004D01*
X029663Y000897D01*
X029663Y000684D01*
X029450Y000577D02*
X029663Y000363D01*
X029019Y000470D02*
X028912Y000363D01*
X028698Y000363D01*
X028592Y000470D01*
X028592Y000897D01*
X028698Y001004D01*
X028912Y001004D01*
X029019Y000897D01*
X028374Y000897D02*
X028267Y001004D01*
X028054Y001004D01*
X027947Y000897D01*
X027947Y000790D01*
X028054Y000684D01*
X028267Y000684D01*
X028374Y000577D01*
X028374Y000470D01*
X028267Y000363D01*
X028054Y000363D01*
X027947Y000470D01*
X027085Y000363D02*
X026765Y000684D01*
X026658Y000577D02*
X027085Y001004D01*
X026658Y001004D02*
X026658Y000363D01*
X026440Y000363D02*
X026013Y000363D01*
X026013Y001004D01*
X025797Y001004D02*
X025584Y001004D01*
X025690Y001004D02*
X025690Y000363D01*
X025584Y000363D02*
X025797Y000363D01*
X025366Y000470D02*
X025259Y000363D01*
X025046Y000363D01*
X024939Y000470D01*
X025046Y000684D02*
X025259Y000684D01*
X025366Y000577D01*
X025366Y000470D01*
X025046Y000684D02*
X024939Y000790D01*
X024939Y000897D01*
X025046Y001004D01*
X025259Y001004D01*
X025366Y000897D01*
X024077Y000897D02*
X024077Y000684D01*
X023970Y000577D01*
X023650Y000577D01*
X023650Y000363D02*
X023650Y001004D01*
X023970Y001004D01*
X024077Y000897D01*
X023433Y000897D02*
X023433Y000470D01*
X023326Y000363D01*
X023112Y000363D01*
X023006Y000470D01*
X023006Y000897D01*
X023112Y001004D01*
X023326Y001004D01*
X023433Y000897D01*
X022788Y001004D02*
X022361Y001004D01*
X022574Y001004D02*
X022574Y000363D01*
D15*
X022521Y014858D02*
X022371Y014858D01*
X022296Y014933D01*
X022135Y014933D02*
X022060Y014858D01*
X021910Y014858D01*
X021835Y014933D01*
X021835Y015234D01*
X021910Y015309D01*
X022060Y015309D01*
X022135Y015234D01*
X022296Y015234D02*
X022371Y015309D01*
X022521Y015309D01*
X022596Y015234D01*
X022596Y015159D01*
X022521Y015084D01*
X022596Y015008D01*
X022596Y014933D01*
X022521Y014858D01*
X022521Y015084D02*
X022446Y015084D01*
X028056Y016333D02*
X028131Y016258D01*
X028281Y016258D01*
X028356Y016333D01*
X028356Y016634D01*
X028281Y016709D01*
X028131Y016709D01*
X028056Y016634D01*
X028056Y016333D01*
X028206Y016408D02*
X028356Y016258D01*
X028516Y016258D02*
X028817Y016258D01*
X028666Y016258D02*
X028666Y016709D01*
X028516Y016559D01*
X028496Y017858D02*
X028646Y017858D01*
X028721Y017933D01*
X028721Y018008D01*
X028646Y018084D01*
X028421Y018084D01*
X028421Y017933D01*
X028496Y017858D01*
X028421Y018084D02*
X028571Y018234D01*
X028721Y018309D01*
X028260Y018234D02*
X028185Y018309D01*
X028035Y018309D01*
X027960Y018234D01*
X027960Y017933D01*
X028035Y017858D01*
X028185Y017858D01*
X028260Y017933D01*
X032810Y017559D02*
X032810Y017183D01*
X032885Y017108D01*
X033035Y017108D01*
X033110Y017183D01*
X033110Y017559D01*
X033271Y017484D02*
X033346Y017559D01*
X033496Y017559D01*
X033571Y017484D01*
X033571Y017409D01*
X033271Y017108D01*
X033571Y017108D01*
X033716Y016559D02*
X033716Y016108D01*
X033566Y016108D02*
X033867Y016108D01*
X033566Y016409D02*
X033716Y016559D01*
X033406Y016484D02*
X033331Y016559D01*
X033106Y016559D01*
X033106Y016108D01*
X033106Y016258D02*
X033331Y016258D01*
X033406Y016334D01*
X033406Y016484D01*
X033256Y016258D02*
X033406Y016108D01*
X035031Y021108D02*
X035181Y021108D01*
X035256Y021183D01*
X035416Y021334D02*
X035642Y021559D01*
X035642Y021108D01*
X035717Y021334D02*
X035416Y021334D01*
X035256Y021484D02*
X035181Y021559D01*
X035031Y021559D01*
X034956Y021484D01*
X034956Y021183D01*
X035031Y021108D01*
X038606Y021108D02*
X038606Y021559D01*
X038831Y021559D01*
X038906Y021484D01*
X038906Y021334D01*
X038831Y021258D01*
X038606Y021258D01*
X038756Y021258D02*
X038906Y021108D01*
X039066Y021108D02*
X039367Y021409D01*
X039367Y021484D01*
X039292Y021559D01*
X039141Y021559D01*
X039066Y021484D01*
X038921Y022108D02*
X039221Y022409D01*
X039221Y022484D01*
X039146Y022559D01*
X038996Y022559D01*
X038921Y022484D01*
X038760Y022484D02*
X038685Y022559D01*
X038535Y022559D01*
X038460Y022484D01*
X038460Y022183D01*
X038535Y022108D01*
X038685Y022108D01*
X038760Y022183D01*
X038921Y022108D02*
X039221Y022108D01*
X039367Y021108D02*
X039066Y021108D01*
X040956Y022133D02*
X040956Y022284D01*
X040956Y022209D02*
X041331Y022209D01*
X041406Y022133D01*
X041406Y022058D01*
X041331Y021983D01*
X041406Y022444D02*
X040956Y022444D01*
X040956Y022669D01*
X041031Y022744D01*
X041181Y022744D01*
X041256Y022669D01*
X041256Y022444D01*
X041406Y022904D02*
X041406Y023204D01*
X041406Y023054D02*
X040956Y023054D01*
X041106Y022904D01*
X039242Y023458D02*
X038941Y023458D01*
X039091Y023458D02*
X039091Y023909D01*
X038941Y023759D01*
X038781Y023909D02*
X038481Y023909D01*
X038481Y023458D01*
X038481Y023684D02*
X038631Y023684D01*
X023946Y022234D02*
X023946Y022159D01*
X023871Y022084D01*
X023946Y022008D01*
X023946Y021933D01*
X023871Y021858D01*
X023721Y021858D01*
X023646Y021933D01*
X023485Y021933D02*
X023485Y022309D01*
X023646Y022234D02*
X023721Y022309D01*
X023871Y022309D01*
X023946Y022234D01*
X023871Y022084D02*
X023796Y022084D01*
X023485Y021933D02*
X023410Y021858D01*
X023260Y021858D01*
X023185Y021933D01*
X023185Y022309D01*
X023296Y019309D02*
X023296Y019084D01*
X023446Y019159D01*
X023521Y019159D01*
X023596Y019084D01*
X023596Y018933D01*
X023521Y018858D01*
X023371Y018858D01*
X023296Y018933D01*
X023135Y018933D02*
X023060Y018858D01*
X022910Y018858D01*
X022835Y018933D01*
X022835Y019234D01*
X022910Y019309D01*
X023060Y019309D01*
X023135Y019234D01*
X023296Y019309D02*
X023596Y019309D01*
X014854Y022304D02*
X014779Y022228D01*
X014554Y022228D01*
X014554Y022078D02*
X014554Y022529D01*
X014779Y022529D01*
X014854Y022454D01*
X014854Y022304D01*
X014394Y022228D02*
X014394Y022153D01*
X014318Y022078D01*
X014168Y022078D01*
X014093Y022153D01*
X013933Y022153D02*
X013858Y022078D01*
X013708Y022078D01*
X013633Y022153D01*
X013633Y022454D01*
X013708Y022529D01*
X013858Y022529D01*
X013933Y022454D01*
X014093Y022454D02*
X014093Y022379D01*
X014168Y022304D01*
X014318Y022304D01*
X014394Y022228D01*
X014394Y022454D02*
X014318Y022529D01*
X014168Y022529D01*
X014093Y022454D01*
X013476Y022529D02*
X013326Y022529D01*
X013401Y022529D02*
X013401Y022078D01*
X013326Y022078D02*
X013476Y022078D01*
X010546Y017559D02*
X010546Y017108D01*
X010396Y017108D02*
X010697Y017108D01*
X010396Y017409D02*
X010546Y017559D01*
X010236Y017559D02*
X010236Y017183D01*
X010161Y017108D01*
X010011Y017108D01*
X009936Y017183D01*
X009936Y017559D01*
D16*
X021731Y016633D02*
X021731Y016333D01*
X021731Y016033D01*
X021931Y016033D02*
X021931Y016333D01*
X021931Y016633D01*
X021931Y018533D02*
X021931Y018833D01*
X021931Y019133D01*
X021731Y019133D02*
X021731Y018833D01*
X021731Y018533D01*
X029481Y019033D02*
X029481Y019333D01*
X029481Y019633D01*
X029681Y019633D02*
X029681Y019333D01*
X029681Y019033D01*
X033531Y021983D02*
X033831Y021983D01*
X034131Y021983D01*
X034131Y022183D02*
X033831Y022183D01*
X033531Y022183D01*
X037031Y022183D02*
X037331Y022183D01*
X037631Y022183D01*
X037631Y021983D02*
X037331Y021983D01*
X037031Y021983D01*
D17*
X036881Y023683D02*
X036881Y024483D01*
X036131Y024183D02*
X035531Y024183D01*
X035531Y023983D01*
X036131Y023983D01*
X036131Y024183D01*
X036431Y024083D02*
X035231Y024083D01*
X034781Y024483D02*
X034781Y023683D01*
X027631Y020583D02*
X027631Y017333D01*
X024031Y017333D01*
X024031Y020583D01*
X027631Y020583D01*
D18*
X026831Y021008D03*
X025831Y021008D03*
X024831Y021008D03*
D19*
X034361Y024083D03*
X037301Y024083D03*
M02*
