G75*
G70*
%OFA0B0*%
%FSLAX24Y24*%
%IPPOS*%
%LPD*%
%AMOC8*
5,1,8,0,0,1.08239X$1,22.5*
%
%ADD10C,0.0160*%
%ADD11C,0.0000*%
%ADD12C,0.0100*%
%ADD13C,0.0051*%
%ADD14C,0.0110*%
%ADD15C,0.0080*%
%ADD16C,0.0060*%
D10*
X011331Y026333D02*
X042331Y026333D01*
X044331Y023333D02*
X044331Y013333D01*
X042331Y010333D02*
X011331Y010333D01*
X011331Y013333D01*
X009331Y013333D01*
X009331Y023333D02*
X011331Y023333D01*
X011331Y026333D01*
X044331Y023333D02*
X042331Y023333D01*
X042331Y026333D01*
X042331Y010333D02*
X042331Y013333D01*
X044331Y013333D01*
X009331Y013333D02*
X009331Y023333D01*
D11*
X012079Y012333D02*
X012081Y012385D01*
X012087Y012437D01*
X012097Y012488D01*
X012110Y012538D01*
X012128Y012588D01*
X012149Y012635D01*
X012173Y012681D01*
X012202Y012725D01*
X012233Y012767D01*
X012267Y012806D01*
X012304Y012843D01*
X012344Y012876D01*
X012387Y012907D01*
X012431Y012934D01*
X012477Y012958D01*
X012526Y012978D01*
X012575Y012994D01*
X012626Y013007D01*
X012677Y013016D01*
X012729Y013021D01*
X012781Y013022D01*
X012833Y013019D01*
X012885Y013012D01*
X012936Y013001D01*
X012986Y012987D01*
X013035Y012968D01*
X013082Y012946D01*
X013127Y012921D01*
X013171Y012892D01*
X013212Y012860D01*
X013251Y012825D01*
X013286Y012787D01*
X013319Y012746D01*
X013349Y012704D01*
X013375Y012659D01*
X013398Y012612D01*
X013417Y012563D01*
X013433Y012513D01*
X013445Y012463D01*
X013453Y012411D01*
X013457Y012359D01*
X013457Y012307D01*
X013453Y012255D01*
X013445Y012203D01*
X013433Y012153D01*
X013417Y012103D01*
X013398Y012054D01*
X013375Y012007D01*
X013349Y011962D01*
X013319Y011920D01*
X013286Y011879D01*
X013251Y011841D01*
X013212Y011806D01*
X013171Y011774D01*
X013127Y011745D01*
X013082Y011720D01*
X013035Y011698D01*
X012986Y011679D01*
X012936Y011665D01*
X012885Y011654D01*
X012833Y011647D01*
X012781Y011644D01*
X012729Y011645D01*
X012677Y011650D01*
X012626Y011659D01*
X012575Y011672D01*
X012526Y011688D01*
X012477Y011708D01*
X012431Y011732D01*
X012387Y011759D01*
X012344Y011790D01*
X012304Y011823D01*
X012267Y011860D01*
X012233Y011899D01*
X012202Y011941D01*
X012173Y011985D01*
X012149Y012031D01*
X012128Y012078D01*
X012110Y012128D01*
X012097Y012178D01*
X012087Y012229D01*
X012081Y012281D01*
X012079Y012333D01*
X012079Y024333D02*
X012081Y024385D01*
X012087Y024437D01*
X012097Y024488D01*
X012110Y024538D01*
X012128Y024588D01*
X012149Y024635D01*
X012173Y024681D01*
X012202Y024725D01*
X012233Y024767D01*
X012267Y024806D01*
X012304Y024843D01*
X012344Y024876D01*
X012387Y024907D01*
X012431Y024934D01*
X012477Y024958D01*
X012526Y024978D01*
X012575Y024994D01*
X012626Y025007D01*
X012677Y025016D01*
X012729Y025021D01*
X012781Y025022D01*
X012833Y025019D01*
X012885Y025012D01*
X012936Y025001D01*
X012986Y024987D01*
X013035Y024968D01*
X013082Y024946D01*
X013127Y024921D01*
X013171Y024892D01*
X013212Y024860D01*
X013251Y024825D01*
X013286Y024787D01*
X013319Y024746D01*
X013349Y024704D01*
X013375Y024659D01*
X013398Y024612D01*
X013417Y024563D01*
X013433Y024513D01*
X013445Y024463D01*
X013453Y024411D01*
X013457Y024359D01*
X013457Y024307D01*
X013453Y024255D01*
X013445Y024203D01*
X013433Y024153D01*
X013417Y024103D01*
X013398Y024054D01*
X013375Y024007D01*
X013349Y023962D01*
X013319Y023920D01*
X013286Y023879D01*
X013251Y023841D01*
X013212Y023806D01*
X013171Y023774D01*
X013127Y023745D01*
X013082Y023720D01*
X013035Y023698D01*
X012986Y023679D01*
X012936Y023665D01*
X012885Y023654D01*
X012833Y023647D01*
X012781Y023644D01*
X012729Y023645D01*
X012677Y023650D01*
X012626Y023659D01*
X012575Y023672D01*
X012526Y023688D01*
X012477Y023708D01*
X012431Y023732D01*
X012387Y023759D01*
X012344Y023790D01*
X012304Y023823D01*
X012267Y023860D01*
X012233Y023899D01*
X012202Y023941D01*
X012173Y023985D01*
X012149Y024031D01*
X012128Y024078D01*
X012110Y024128D01*
X012097Y024178D01*
X012087Y024229D01*
X012081Y024281D01*
X012079Y024333D01*
X040204Y012333D02*
X040206Y012385D01*
X040212Y012437D01*
X040222Y012488D01*
X040235Y012538D01*
X040253Y012588D01*
X040274Y012635D01*
X040298Y012681D01*
X040327Y012725D01*
X040358Y012767D01*
X040392Y012806D01*
X040429Y012843D01*
X040469Y012876D01*
X040512Y012907D01*
X040556Y012934D01*
X040602Y012958D01*
X040651Y012978D01*
X040700Y012994D01*
X040751Y013007D01*
X040802Y013016D01*
X040854Y013021D01*
X040906Y013022D01*
X040958Y013019D01*
X041010Y013012D01*
X041061Y013001D01*
X041111Y012987D01*
X041160Y012968D01*
X041207Y012946D01*
X041252Y012921D01*
X041296Y012892D01*
X041337Y012860D01*
X041376Y012825D01*
X041411Y012787D01*
X041444Y012746D01*
X041474Y012704D01*
X041500Y012659D01*
X041523Y012612D01*
X041542Y012563D01*
X041558Y012513D01*
X041570Y012463D01*
X041578Y012411D01*
X041582Y012359D01*
X041582Y012307D01*
X041578Y012255D01*
X041570Y012203D01*
X041558Y012153D01*
X041542Y012103D01*
X041523Y012054D01*
X041500Y012007D01*
X041474Y011962D01*
X041444Y011920D01*
X041411Y011879D01*
X041376Y011841D01*
X041337Y011806D01*
X041296Y011774D01*
X041252Y011745D01*
X041207Y011720D01*
X041160Y011698D01*
X041111Y011679D01*
X041061Y011665D01*
X041010Y011654D01*
X040958Y011647D01*
X040906Y011644D01*
X040854Y011645D01*
X040802Y011650D01*
X040751Y011659D01*
X040700Y011672D01*
X040651Y011688D01*
X040602Y011708D01*
X040556Y011732D01*
X040512Y011759D01*
X040469Y011790D01*
X040429Y011823D01*
X040392Y011860D01*
X040358Y011899D01*
X040327Y011941D01*
X040298Y011985D01*
X040274Y012031D01*
X040253Y012078D01*
X040235Y012128D01*
X040222Y012178D01*
X040212Y012229D01*
X040206Y012281D01*
X040204Y012333D01*
X040204Y024333D02*
X040206Y024385D01*
X040212Y024437D01*
X040222Y024488D01*
X040235Y024538D01*
X040253Y024588D01*
X040274Y024635D01*
X040298Y024681D01*
X040327Y024725D01*
X040358Y024767D01*
X040392Y024806D01*
X040429Y024843D01*
X040469Y024876D01*
X040512Y024907D01*
X040556Y024934D01*
X040602Y024958D01*
X040651Y024978D01*
X040700Y024994D01*
X040751Y025007D01*
X040802Y025016D01*
X040854Y025021D01*
X040906Y025022D01*
X040958Y025019D01*
X041010Y025012D01*
X041061Y025001D01*
X041111Y024987D01*
X041160Y024968D01*
X041207Y024946D01*
X041252Y024921D01*
X041296Y024892D01*
X041337Y024860D01*
X041376Y024825D01*
X041411Y024787D01*
X041444Y024746D01*
X041474Y024704D01*
X041500Y024659D01*
X041523Y024612D01*
X041542Y024563D01*
X041558Y024513D01*
X041570Y024463D01*
X041578Y024411D01*
X041582Y024359D01*
X041582Y024307D01*
X041578Y024255D01*
X041570Y024203D01*
X041558Y024153D01*
X041542Y024103D01*
X041523Y024054D01*
X041500Y024007D01*
X041474Y023962D01*
X041444Y023920D01*
X041411Y023879D01*
X041376Y023841D01*
X041337Y023806D01*
X041296Y023774D01*
X041252Y023745D01*
X041207Y023720D01*
X041160Y023698D01*
X041111Y023679D01*
X041061Y023665D01*
X041010Y023654D01*
X040958Y023647D01*
X040906Y023644D01*
X040854Y023645D01*
X040802Y023650D01*
X040751Y023659D01*
X040700Y023672D01*
X040651Y023688D01*
X040602Y023708D01*
X040556Y023732D01*
X040512Y023759D01*
X040469Y023790D01*
X040429Y023823D01*
X040392Y023860D01*
X040358Y023899D01*
X040327Y023941D01*
X040298Y023985D01*
X040274Y024031D01*
X040253Y024078D01*
X040235Y024128D01*
X040222Y024178D01*
X040212Y024229D01*
X040206Y024281D01*
X040204Y024333D01*
X025181Y015933D02*
X025183Y015983D01*
X025189Y016033D01*
X025199Y016083D01*
X025212Y016131D01*
X025229Y016179D01*
X025250Y016225D01*
X025274Y016269D01*
X025302Y016311D01*
X025333Y016351D01*
X025367Y016388D01*
X025404Y016423D01*
X025443Y016454D01*
X025484Y016483D01*
X025528Y016508D01*
X025574Y016530D01*
X025621Y016548D01*
X025669Y016562D01*
X025718Y016573D01*
X025768Y016580D01*
X025818Y016583D01*
X025869Y016582D01*
X025919Y016577D01*
X025969Y016568D01*
X026017Y016556D01*
X026065Y016539D01*
X026111Y016519D01*
X026156Y016496D01*
X026199Y016469D01*
X026239Y016439D01*
X026277Y016406D01*
X026312Y016370D01*
X026345Y016331D01*
X026374Y016290D01*
X026400Y016247D01*
X026423Y016202D01*
X026442Y016155D01*
X026457Y016107D01*
X026469Y016058D01*
X026477Y016008D01*
X026481Y015958D01*
X026481Y015908D01*
X026477Y015858D01*
X026469Y015808D01*
X026457Y015759D01*
X026442Y015711D01*
X026423Y015664D01*
X026400Y015619D01*
X026374Y015576D01*
X026345Y015535D01*
X026312Y015496D01*
X026277Y015460D01*
X026239Y015427D01*
X026199Y015397D01*
X026156Y015370D01*
X026111Y015347D01*
X026065Y015327D01*
X026017Y015310D01*
X025969Y015298D01*
X025919Y015289D01*
X025869Y015284D01*
X025818Y015283D01*
X025768Y015286D01*
X025718Y015293D01*
X025669Y015304D01*
X025621Y015318D01*
X025574Y015336D01*
X025528Y015358D01*
X025484Y015383D01*
X025443Y015412D01*
X025404Y015443D01*
X025367Y015478D01*
X025333Y015515D01*
X025302Y015555D01*
X025274Y015597D01*
X025250Y015641D01*
X025229Y015687D01*
X025212Y015735D01*
X025199Y015783D01*
X025189Y015833D01*
X025183Y015883D01*
X025181Y015933D01*
D12*
X009331Y008833D02*
X009331Y004333D01*
X044331Y004333D02*
X044331Y008833D01*
X007831Y010333D02*
X001831Y010333D01*
X001831Y026333D02*
X007831Y026333D01*
D13*
X003118Y026333D02*
X002331Y026333D01*
X003118Y010333D02*
X002331Y010333D01*
X002331Y026333D01*
X002205Y025310D01*
X002457Y025310D01*
X002331Y026333D01*
X002280Y025310D01*
X002382Y025310D02*
X002331Y026333D01*
X002229Y025310D01*
X002433Y025310D02*
X002331Y026333D01*
X002331Y010333D02*
X002205Y011357D01*
X002457Y011357D01*
X002331Y010333D01*
X002280Y011357D01*
X002382Y011357D02*
X002331Y010333D01*
X002229Y011357D01*
X002433Y011357D02*
X002331Y010333D01*
X009331Y004833D02*
X009331Y004833D01*
X044331Y004833D02*
X044331Y004833D01*
X009331Y004833D01*
X010355Y004959D01*
X010355Y004708D01*
X009331Y004833D01*
X010355Y004885D01*
X010355Y004782D02*
X009331Y004833D01*
X010355Y004936D01*
X010355Y004731D02*
X009331Y004833D01*
X044331Y004833D02*
X043307Y004959D01*
X043307Y004708D01*
X044331Y004833D01*
X043307Y004885D01*
X043307Y004782D02*
X044331Y004833D01*
X043307Y004936D01*
X043307Y004731D02*
X044331Y004833D01*
D14*
X001882Y016556D02*
X000613Y016556D01*
X001248Y015921D01*
X001248Y016767D01*
X001671Y017190D02*
X000825Y017190D01*
X000613Y017402D01*
X000613Y017825D01*
X000825Y018036D01*
X001671Y018036D01*
X001882Y017825D01*
X001882Y017402D01*
X001671Y017190D01*
X000825Y018036D01*
X001882Y018459D02*
X001671Y018459D01*
X001671Y018671D01*
X001882Y018671D01*
X001882Y018459D01*
X000613Y019939D02*
X000825Y019516D01*
X001248Y019093D01*
X001671Y019093D01*
X001882Y019305D01*
X001882Y019728D01*
X001671Y019939D01*
X001459Y019939D01*
X001248Y019728D01*
X001248Y019093D01*
X001882Y020997D02*
X000613Y020997D01*
X001248Y020362D01*
X001248Y021208D01*
X024967Y006340D02*
X025179Y006551D01*
X025602Y006551D01*
X025813Y006340D01*
X025813Y006128D01*
X025602Y005917D01*
X025813Y005705D01*
X025813Y005494D01*
X025602Y005282D01*
X025179Y005282D01*
X024967Y005494D01*
X024967Y005705D01*
X025179Y005917D01*
X024967Y006128D01*
X024967Y006340D01*
X025179Y005917D02*
X025602Y005917D01*
X026236Y006340D02*
X026448Y006551D01*
X026871Y006551D01*
X027082Y006340D01*
X027082Y006128D01*
X026871Y005917D01*
X027082Y005705D01*
X027082Y005494D01*
X026871Y005282D01*
X026448Y005282D01*
X026236Y005494D01*
X026236Y005705D01*
X026448Y005917D01*
X026236Y006128D01*
X026236Y006340D01*
X026448Y005917D02*
X026871Y005917D01*
X027505Y005282D02*
X027505Y005494D01*
X027716Y005494D01*
X027716Y005282D01*
X027505Y005282D01*
X028139Y005494D02*
X028351Y005282D01*
X028774Y005282D01*
X028985Y005494D01*
X028985Y006340D01*
X028774Y006551D01*
X028351Y006551D01*
X028139Y006340D01*
X028139Y006128D01*
X028351Y005917D01*
X028985Y005917D01*
D15*
X003666Y017305D02*
X003359Y016998D01*
X003052Y016998D01*
X002745Y017305D01*
X003052Y017612D02*
X002745Y017919D01*
X003666Y017919D01*
X003666Y017612D02*
X003666Y018226D01*
X003666Y018533D02*
X003513Y018533D01*
X003513Y018686D01*
X003666Y018686D01*
X003666Y018533D01*
X002745Y019607D02*
X002899Y019300D01*
X003206Y018993D01*
X003513Y018993D01*
X003666Y019147D01*
X003666Y019454D01*
X003513Y019607D01*
X003359Y019607D01*
X003206Y019454D01*
X003206Y018993D01*
X002592Y020068D02*
X002899Y020068D01*
X003052Y019914D01*
X002592Y020375D02*
X002899Y020375D01*
X003052Y020221D01*
X003666Y020681D02*
X003359Y020988D01*
X003052Y020988D01*
X002745Y020681D01*
X025678Y003373D02*
X025371Y003680D01*
X025371Y003987D01*
X025678Y004294D01*
X025985Y004141D02*
X026138Y004294D01*
X026445Y004294D01*
X026599Y004141D01*
X026599Y003987D01*
X026445Y003834D01*
X026292Y003834D01*
X026445Y003834D02*
X026599Y003680D01*
X026599Y003527D01*
X026445Y003373D01*
X026138Y003373D01*
X025985Y003527D01*
X026906Y003373D02*
X026906Y003527D01*
X027059Y003527D01*
X027059Y003373D01*
X026906Y003373D01*
X027980Y004294D02*
X027366Y004294D01*
X027366Y003834D01*
X027673Y003987D01*
X027826Y003987D01*
X027980Y003834D01*
X027980Y003527D01*
X027826Y003373D01*
X027519Y003373D01*
X027366Y003527D01*
X028440Y004448D02*
X028440Y004141D01*
X028287Y003987D01*
X028747Y004448D02*
X028747Y004141D01*
X028594Y003987D01*
X029054Y003373D02*
X029361Y003680D01*
X029361Y003987D01*
X029054Y004294D01*
D16*
X021861Y001004D02*
X021861Y000363D01*
X022181Y000363D01*
X022288Y000470D01*
X022288Y000897D01*
X022181Y001004D01*
X021861Y001004D01*
X022506Y000363D02*
X022719Y000363D01*
X022612Y000363D02*
X022612Y001004D01*
X022506Y001004D02*
X022719Y001004D01*
X022935Y000363D02*
X022935Y001004D01*
X023149Y000790D01*
X023362Y001004D01*
X023362Y000363D01*
X024007Y001004D02*
X023580Y001004D01*
X023580Y000363D01*
X024007Y000363D01*
X023793Y000684D02*
X023580Y000684D01*
X024224Y000363D02*
X024224Y001004D01*
X024651Y000363D01*
X024651Y001004D01*
X025296Y000897D02*
X025189Y001004D01*
X024976Y001004D01*
X024869Y000897D01*
X024869Y000790D01*
X024976Y000684D01*
X025189Y000684D01*
X025296Y000577D01*
X025296Y000470D01*
X025189Y000363D01*
X024976Y000363D01*
X024869Y000470D01*
X025513Y000363D02*
X025727Y000363D01*
X025620Y000363D02*
X025620Y001004D01*
X025513Y001004D02*
X025727Y001004D01*
X026263Y001004D02*
X026050Y001004D01*
X025943Y000897D01*
X025943Y000470D01*
X026050Y000363D01*
X026263Y000363D01*
X026370Y000470D01*
X026370Y000897D01*
X026263Y001004D01*
X026588Y000363D02*
X026588Y001004D01*
X027015Y000363D01*
X027015Y001004D01*
X027877Y001004D02*
X027877Y000363D01*
X028304Y000363D01*
X028521Y000363D02*
X028521Y000790D01*
X028735Y001004D01*
X028948Y000790D01*
X028948Y000363D01*
X028948Y000684D02*
X028521Y000684D01*
X029166Y001004D02*
X029166Y000897D01*
X029379Y000684D01*
X029593Y000897D01*
X029593Y001004D01*
X029379Y000684D02*
X029379Y000363D01*
X030131Y001004D02*
X029917Y001004D01*
X029810Y000897D01*
X029810Y000470D01*
X029917Y000363D01*
X030131Y000363D01*
X030237Y000470D01*
X030237Y000897D01*
X030131Y001004D01*
X030455Y001004D02*
X030455Y000470D01*
X030562Y000363D01*
X030775Y000363D01*
X030882Y000470D01*
X030882Y001004D01*
X031313Y001004D02*
X031313Y000363D01*
X031100Y001004D02*
X031527Y001004D01*
M02*
