%
M48
M72
T01C0.0240
T02C0.0276
T03C0.0315
T04C0.0320
T05C0.0354
T06C0.0360
T07C0.0400
T08C0.0512
T09C0.1300
T10C0.1378
%
T01
X19331Y21833
T02
X30081Y21333
X29081Y21333
X22331Y21333
X21331Y21333
X30081Y15083
X29081Y15083
T03
X11331Y21333
X10331Y21333
X12331Y21333
X31500Y22377
X31500Y21589
X31500Y20802
X31500Y20014
X31500Y19227
X31500Y18440
X31500Y17652
X31500Y16865
X31500Y16077
X31500Y15290
X40162Y15290
X40162Y16077
X40162Y16865
X40162Y17652
X40162Y18440
X40162Y19227
X40162Y20014
X40162Y20802
X40162Y21589
X40162Y22377
T04
X34331Y17333
X35331Y17333
X36331Y17333
X37331Y17333
X37331Y20333
X36331Y20333
X35331Y20333
X34331Y20333
X33831Y21583
X33831Y22583
X37331Y22583
X37331Y21583
X22331Y16333
X21331Y16333
X22331Y18833
X21331Y18833
X30081Y19333
X29081Y19333
X29831Y16833
X29081Y17333
X29831Y17833
X11831Y16333
X12831Y16333
X13831Y16333
X14831Y16333
X15831Y16333
X16831Y16333
X17831Y16333
X18831Y16333
X19831Y16333
X19831Y19333
X18831Y19333
X17831Y19333
X16831Y19333
X15831Y19333
X14831Y19333
X13831Y19333
X12831Y19333
X11831Y19333
X33831Y24083
X37831Y24083
T05
X33331Y15333
X37331Y15333
X39206Y20208
X39206Y16208
T06
X42331Y22333
X43331Y22333
T07
X26831Y21833
X25831Y21833
X24831Y21833
X13831Y21333
X14831Y21333
X15831Y21333
X16831Y21333
X17831Y21333
T08
X15823Y24343
X17823Y24343
X19823Y24343
X21823Y24343
X23823Y24343
X25823Y24343
X27823Y24343
X29823Y24343
X15823Y12343
X17823Y12343
X19823Y12343
X21823Y12343
X23823Y12343
X25823Y12343
X27823Y12343
X29823Y12343
X42841Y20342
X42841Y18342
X42841Y16342
X42841Y14342
X34823Y12343
X36823Y12343
T09
X25831Y15933
T10
X12768Y12333
X12768Y24333
X40893Y12333
X40893Y24333
M30
